<?xml version="1.0" encoding="utf-8"?>
<!-- Generator: Adobe Illustrator 13.0.0, SVG Export Plug-In  -->
<!DOCTYPE svg PUBLIC "-//W3C//DTD SVG 1.1//EN" "http://www.w3.org/Graphics/SVG/1.1/DTD/svg11.dtd" [
	<!ENTITY ns_flows "http://ns.adobe.com/Flows/1.0/">
]>
<svg version="1.1"
	 xmlns="http://www.w3.org/2000/svg" xmlns:xlink="http://www.w3.org/1999/xlink" xmlns:a="http://ns.adobe.com/AdobeSVGViewerExtensions/3.0/"
	 x="0px" y="0px" width="75px" height="75px" viewBox="0 0 75 75" enable-background="new 0 0 75 75" xml:space="preserve">
<defs>
</defs>
<g>
	<defs>
		<rect id="SVGID_1_" width="75" height="75"/>
	</defs>
	<clipPath id="SVGID_2_">
		<use xlink:href="#SVGID_1_"  overflow="visible"/>
	</clipPath>
	<path clip-path="url(#SVGID_2_)" fill="#333333" d="M73.5,34.217c-0.828,0-1.5,0.671-1.5,1.5v3.038H3v-3.038
		c0-0.829-0.672-1.5-1.5-1.5S0,34.888,0,35.717v31.628V73.5C0,74.329,0.672,75,1.5,75h72c0.828,0,1.5-0.671,1.5-1.5v-6.155V35.717
		C75,34.888,74.328,34.217,73.5,34.217 M72,65.845h-6V41.756h6V65.845z M57,41.755h6v24.089h-6V41.755z M48,41.755h6v24.089h-6
		V41.755z M39,41.755h6v24.089h-6V41.755z M30,41.755h6v24.089h-6V41.755z M21,41.755h6v24.089h-6V41.755z M12,41.755h6v24.089h-6
		V41.755z M9,65.845H3V41.756h6V65.845z M72,72H3v-3.155h69V72z"/>
	<path clip-path="url(#SVGID_2_)" fill="#333333" d="M16.326,37.217c0.829,0,1.5-0.671,1.5-1.5v-5.543H36v5.543
		c0,0.829,0.672,1.5,1.5,1.5s1.5-0.671,1.5-1.5v-5.543h18.174v5.543c0,0.829,0.671,1.5,1.5,1.5c0.828,0,1.5-0.671,1.5-1.5V1.5
		c0-0.829-0.672-1.5-1.5-1.5H16.326c-0.828,0-1.5,0.671-1.5,1.5v34.217C14.826,36.546,15.498,37.217,16.326,37.217 M57.174,27.174
		H39V3h18.174V27.174z M36,27.174H17.826V3H36V27.174z"/>
	<path clip-path="url(#SVGID_2_)" fill="#333333" d="M21.678,16.367c0.385,0,0.769-0.146,1.062-0.441l4.815-4.827
		c0.585-0.586,0.584-1.536-0.003-2.121c-0.586-0.586-1.537-0.586-2.121,0.003l-4.815,4.827c-0.585,0.586-0.584,1.536,0.003,2.121
		C20.911,16.221,21.294,16.367,21.678,16.367"/>
	<path clip-path="url(#SVGID_2_)" fill="#333333" d="M21.796,21.935c0.292,0.292,0.676,0.438,1.059,0.438
		c0.385,0,0.769-0.146,1.062-0.441l9.63-9.653c0.585-0.586,0.584-1.537-0.003-2.121c-0.586-0.585-1.536-0.586-2.121,0.003
		l-9.63,9.653C21.208,20.399,21.209,21.35,21.796,21.935"/>
</g>
</svg>
