<?xml version="1.0" encoding="utf-8"?>
<!-- Generator: Adobe Illustrator 13.0.0, SVG Export Plug-In  -->
<!DOCTYPE svg PUBLIC "-//W3C//DTD SVG 1.1//EN" "http://www.w3.org/Graphics/SVG/1.1/DTD/svg11.dtd" [
	<!ENTITY ns_flows "http://ns.adobe.com/Flows/1.0/">
]>
<svg version="1.1"
	 xmlns="http://www.w3.org/2000/svg" xmlns:xlink="http://www.w3.org/1999/xlink" xmlns:a="http://ns.adobe.com/AdobeSVGViewerExtensions/3.0/"
	 x="0px" y="0px" width="85px" height="54px" viewBox="0 0 85 54" enable-background="new 0 0 85 54" xml:space="preserve">
<defs>
</defs>
<g>
	<defs>
		<rect id="SVGID_1_" y="0" width="85" height="54"/>
	</defs>
	<clipPath id="SVGID_2_">
		<use xlink:href="#SVGID_1_"  overflow="visible"/>
	</clipPath>
	<path clip-path="url(#SVGID_2_)" fill="#333333" d="M83.5,54c-0.828,0-1.5-0.671-1.5-1.5V28.872c0-1.01-0.68-1.862-1.484-1.862
		H26.703c-0.804,0-1.484,0.852-1.484,1.862V52.5c0,0.829-0.671,1.5-1.5,1.5c-0.828,0-1.5-0.671-1.5-1.5V28.872
		c0-2.681,2.012-4.862,4.484-4.862h53.813c2.474,0,4.484,2.181,4.484,4.862V52.5C85,53.33,84.328,54,83.5,54"/>
	<path clip-path="url(#SVGID_2_)" fill="#333333" d="M83.5,47.278H23.719c-0.828,0-1.5-0.671-1.5-1.5c0-0.828,0.672-1.5,1.5-1.5
		H83.5c0.828,0,1.5,0.672,1.5,1.5C85,46.607,84.328,47.278,83.5,47.278"/>
	<path clip-path="url(#SVGID_2_)" fill="#333333" d="M80.774,21.787c-0.828,0-1.5-0.671-1.5-1.5V4.862
		C79.274,3.835,78.608,3,77.791,3H29.429c-0.818,0-1.484,0.835-1.484,1.862v15.425c0,0.829-0.672,1.5-1.5,1.5
		c-0.828,0-1.5-0.671-1.5-1.5V4.862c0-2.68,2.011-4.862,4.484-4.862h48.362c2.473,0,4.483,2.182,4.483,4.862v15.425
		C82.274,21.116,81.603,21.787,80.774,21.787"/>
	<path clip-path="url(#SVGID_2_)" fill="#333333" d="M48.626,21.787c-0.828,0-1.5-0.671-1.5-1.5v-4.86
		c0-1.027-0.666-1.862-1.483-1.862h-7.247c-0.818,0-1.484,0.835-1.484,1.862v4.86c0,0.829-0.671,1.5-1.5,1.5
		c-0.828,0-1.5-0.671-1.5-1.5v-4.86c0-2.681,2.012-4.862,4.484-4.862h7.247c2.473,0,4.483,2.181,4.483,4.862v4.86
		C50.126,21.116,49.454,21.787,48.626,21.787"/>
	<path clip-path="url(#SVGID_2_)" fill="#333333" d="M71.807,21.787c-0.828,0-1.5-0.671-1.5-1.5v-4.86
		c0-1.027-0.666-1.862-1.483-1.862h-7.246c-0.818,0-1.484,0.835-1.484,1.862v4.86c0,0.829-0.671,1.5-1.5,1.5
		c-0.828,0-1.5-0.671-1.5-1.5v-4.86c0-2.681,2.012-4.862,4.484-4.862h7.246c2.473,0,4.483,2.181,4.483,4.862v4.86
		C73.307,21.116,72.635,21.787,71.807,21.787"/>
	<path clip-path="url(#SVGID_2_)" fill="#333333" d="M18.539,50.761H1.5c-0.828,0-1.5-0.671-1.5-1.5V26.593
		c0-0.829,0.672-1.5,1.5-1.5h17.039c0.828,0,1.5,0.671,1.5,1.5v22.668C20.039,50.09,19.367,50.761,18.539,50.761 M3,47.761h14.039
		V28.093H3V47.761z"/>
	<path clip-path="url(#SVGID_2_)" fill="#333333" d="M18.539,39.449H1.5c-0.828,0-1.5-0.671-1.5-1.5s0.672-1.5,1.5-1.5h17.039
		c0.828,0,1.5,0.671,1.5,1.5S19.367,39.449,18.539,39.449"/>
	<path clip-path="url(#SVGID_2_)" fill="#333333" d="M11.281,33.461H8.759c-0.829,0-1.5-0.671-1.5-1.5c0-0.828,0.671-1.5,1.5-1.5
		h2.522c0.828,0,1.5,0.672,1.5,1.5C12.781,32.791,12.109,33.461,11.281,33.461"/>
	<path clip-path="url(#SVGID_2_)" fill="#333333" d="M11.281,44.818H8.759c-0.829,0-1.5-0.672-1.5-1.5c0-0.829,0.671-1.5,1.5-1.5
		h2.522c0.828,0,1.5,0.671,1.5,1.5C12.781,44.146,12.109,44.818,11.281,44.818"/>
	<path clip-path="url(#SVGID_2_)" fill="#333333" d="M4.626,54c-0.828,0-1.5-0.671-1.5-1.5v-3.239c0-0.829,0.672-1.5,1.5-1.5
		s1.5,0.671,1.5,1.5V52.5C6.126,53.33,5.454,54,4.626,54"/>
	<path clip-path="url(#SVGID_2_)" fill="#333333" d="M15.413,54c-0.828,0-1.5-0.671-1.5-1.5v-3.239c0-0.829,0.672-1.5,1.5-1.5
		s1.5,0.671,1.5,1.5V52.5C16.913,53.33,16.241,54,15.413,54"/>
	<path clip-path="url(#SVGID_2_)" fill="#333333" d="M16.874,18.443H3.165c-0.828,0-1.5-0.671-1.5-1.5v-2.374
		c0-1.158,0.194-2.291,0.577-3.37L5.151,1.086c0.186-0.643,0.773-1.085,1.442-1.085h6.854c0.668,0,1.256,0.442,1.441,1.085
		l2.937,10.201c0.355,0.989,0.549,2.123,0.549,3.282v2.374C18.374,17.772,17.702,18.443,16.874,18.443 M4.665,15.443h10.709v-0.874
		c0-0.816-0.136-1.612-0.404-2.365l-2.652-9.203H7.722l-2.625,9.115c-0.296,0.843-0.432,1.638-0.432,2.453V15.443z"/>
	<path clip-path="url(#SVGID_2_)" fill="#333333" d="M10.02,28.093c-0.828,0-1.5-0.671-1.5-1.5v-9.65c0-0.83,0.672-1.5,1.5-1.5
		s1.5,0.67,1.5,1.5v9.65C11.52,27.422,10.848,28.093,10.02,28.093"/>
</g>
</svg>
