<?xml version="1.0" encoding="utf-8"?>
<!-- Generator: Adobe Illustrator 13.0.0, SVG Export Plug-In  -->
<!DOCTYPE svg PUBLIC "-//W3C//DTD SVG 1.1//EN" "http://www.w3.org/Graphics/SVG/1.1/DTD/svg11.dtd" [
	<!ENTITY ns_flows "http://ns.adobe.com/Flows/1.0/">
]>
<svg version="1.1"
	 xmlns="http://www.w3.org/2000/svg" xmlns:xlink="http://www.w3.org/1999/xlink" xmlns:a="http://ns.adobe.com/AdobeSVGViewerExtensions/3.0/"
	 x="0px" y="0px" width="72px" height="75px" viewBox="0 0 72 75" enable-background="new 0 0 72 75" xml:space="preserve">
<defs>
</defs>
<g>
	<defs>
		<rect id="SVGID_1_" width="72" height="75"/>
	</defs>
	<clipPath id="SVGID_2_">
		<use xlink:href="#SVGID_1_"  overflow="visible"/>
	</clipPath>
	<path clip-path="url(#SVGID_2_)" fill="#333333" d="M70.5,40.33H54.259c0.049-0.243,0.075-0.494,0.075-0.751v-6.5
		c0.66-0.157,1.16-0.723,1.16-1.431c0-0.829-0.671-1.5-1.5-1.5H41.07c-0.828,0-1.5,0.671-1.5,1.5c0,0.708,0.5,1.273,1.158,1.431v6.5
		c0,0.257,0.026,0.508,0.075,0.751H36H10.914l-0.076-9.37c-0.016-1.624,1.267-2.957,2.861-2.973
		c0.727,0.003,1.494,0.289,2.044,0.837c0.556,0.55,0.865,1.289,0.873,2.078c0.008,0.824,0.678,1.486,1.5,1.486h0.014
		c0.829-0.008,1.494-0.686,1.486-1.515c-0.016-1.583-0.64-3.067-1.759-4.179c-1.123-1.115-2.628-1.713-4.188-1.707
		c-3.247,0.034-5.863,2.726-5.831,5.999l0.076,9.344H1.5c-0.828,0-1.5,0.671-1.5,1.5V73.5C0,74.329,0.672,75,1.5,75H36h34.5
		c0.829,0,1.5-0.671,1.5-1.5V41.83C72,41.001,71.329,40.33,70.5,40.33 M69,50.332h-6.242H43.742H37.5V43.33h6.953h6.157H69V50.332z
		 M45.242,53.332h16.017v11.023H45.242V53.332z M3,53.332h31.5v7.771H3V53.332z M43.729,39.579v-6.431h7.606v6.431
		c0,0.414-0.325,0.751-0.725,0.751h-6.157C44.054,40.33,43.729,39.993,43.729,39.579 M9.426,43.33h0.013H34.5v7.002H3V43.33H9.426z
		 M3,64.104h31.5v7.896H3V64.104z M37.5,72V53.332h4.742v12.523c0,0.828,0.671,1.5,1.5,1.5h19.016c0.829,0,1.5-0.672,1.5-1.5V53.332
		H69V72H37.5z"/>
	<path clip-path="url(#SVGID_2_)" fill="#333333" d="M47.302,45.331h-1.488c-0.828,0-1.5,0.671-1.5,1.5s0.672,1.5,1.5,1.5h1.488
		c0.827,0,1.5-0.671,1.5-1.5S48.129,45.331,47.302,45.331"/>
	<path clip-path="url(#SVGID_2_)" fill="#333333" d="M52.506,48.331h1.487c0.829,0,1.5-0.671,1.5-1.5s-0.671-1.5-1.5-1.5h-1.487
		c-0.828,0-1.5,0.671-1.5,1.5S51.678,48.331,52.506,48.331"/>
	<path clip-path="url(#SVGID_2_)" fill="#333333" d="M59.198,48.331h1.487c0.829,0,1.5-0.671,1.5-1.5s-0.671-1.5-1.5-1.5h-1.487
		c-0.828,0-1.5,0.671-1.5,1.5S58.37,48.331,59.198,48.331"/>
	<path clip-path="url(#SVGID_2_)" fill="#333333" d="M22.496,55.719h-7.493c-0.828,0-1.5,0.671-1.5,1.5c0,0.828,0.672,1.5,1.5,1.5
		h7.493c0.828,0,1.5-0.672,1.5-1.5C23.996,56.39,23.324,55.719,22.496,55.719"/>
	<path clip-path="url(#SVGID_2_)" fill="#333333" d="M22.496,66.49h-7.493c-0.828,0-1.5,0.672-1.5,1.5c0,0.829,0.672,1.5,1.5,1.5
		h7.493c0.828,0,1.5-0.671,1.5-1.5C23.996,67.162,23.324,66.49,22.496,66.49"/>
	<path clip-path="url(#SVGID_2_)" fill="#333333" d="M39.718,22.125h27.064c0.475,0,0.922-0.224,1.204-0.605
		s0.369-0.873,0.231-1.327l-2.975-9.873c-0.191-0.634-0.774-1.068-1.437-1.068h-5.339V1.5c0-0.829-0.671-1.5-1.5-1.5
		s-1.5,0.671-1.5,1.5v7.752h-4.436V1.5c0-0.829-0.672-1.5-1.5-1.5c-0.829,0-1.5,0.671-1.5,1.5v7.752h-5.34
		c-0.662,0-1.245,0.434-1.437,1.068l-2.974,9.873c-0.138,0.454-0.052,0.946,0.231,1.327S39.243,22.125,39.718,22.125 M43.807,12.252
		h18.886l2.071,6.873H41.736L43.807,12.252z"/>
	<path clip-path="url(#SVGID_2_)" fill="#333333" d="M60.653,14.47h-1.487c-0.829,0-1.5,0.671-1.5,1.5s0.671,1.5,1.5,1.5h1.487
		c0.829,0,1.5-0.671,1.5-1.5S61.482,14.47,60.653,14.47"/>
</g>
</svg>
