<?xml version="1.0" encoding="utf-8"?>
<!-- Generator: Adobe Illustrator 13.0.0, SVG Export Plug-In  -->
<!DOCTYPE svg PUBLIC "-//W3C//DTD SVG 1.1//EN" "http://www.w3.org/Graphics/SVG/1.1/DTD/svg11.dtd" [
	<!ENTITY ns_flows "http://ns.adobe.com/Flows/1.0/">
]>
<svg version="1.1"
	 xmlns="http://www.w3.org/2000/svg" xmlns:xlink="http://www.w3.org/1999/xlink" xmlns:a="http://ns.adobe.com/AdobeSVGViewerExtensions/3.0/"
	 x="0px" y="0px" width="99px" height="66px" viewBox="0 0 99 66" enable-background="new 0 0 99 66" xml:space="preserve">
<defs>
</defs>
<g>
	<defs>
		<rect id="SVGID_1_" width="99" height="66"/>
	</defs>
	<clipPath id="SVGID_2_">
		<use xlink:href="#SVGID_1_"  overflow="visible"/>
	</clipPath>
	<path clip-path="url(#SVGID_2_)" fill="#333333" d="M98.987,41.988C98.991,41.819,99,41.668,99,41.489
		c0-0.211-0.044-0.409-0.122-0.592c-0.438-2.527-2.204-4.581-4.555-5.437c0.008-0.029,0.014-0.049,0.021-0.079
		c1.13-4.213,3.778-14.077,0.074-18.905c-1.347-1.757-3.328-2.647-5.891-2.647H31.306c-0.506,0-0.997,0.035-1.461,0.107
		c-0.819,0.124-1.382,0.889-1.258,1.708c0.125,0.819,0.894,1.382,1.709,1.256c0.315-0.046,0.651-0.071,1.01-0.071h57.222
		c1.603,0,2.751,0.482,3.511,1.472c2.803,3.655,0.248,13.175-0.592,16.302c-0.046,0.172-0.086,0.323-0.125,0.473
		c-3.126,0.273-5.684,2.564-6.31,5.589c-0.178-0.016-0.35-0.055-0.531-0.055H35.045c-0.182,0-0.353,0.039-0.531,0.055
		c-0.605-2.921-3.011-5.158-5.991-5.558c-0.042-0.157-0.085-0.32-0.134-0.505c-0.301-1.121-0.755-2.813-1.138-4.704
		c-0.164-0.811-0.951-1.342-1.767-1.173c-0.813,0.164-1.338,0.956-1.173,1.768c0.4,1.979,0.867,3.721,1.178,4.878
		c-2.49,0.788-4.385,2.897-4.84,5.525c-0.078,0.183-0.122,0.381-0.122,0.592c0,0.179,0.008,0.33,0.012,0.499
		c0,0.042-0.012,0.08-0.012,0.122c0,0.032,0.016,0.059,0.017,0.089c0.088,2.591,0.634,3.76,1.126,4.782
		c0.398,0.829,0.713,1.484,0.713,3.214v12.169c0,2.006,1.626,3.636,3.624,3.636h4.372h58.769h4.372c1.999,0,3.625-1.63,3.625-3.636
		V50.195c0-1.729,0.313-2.385,0.713-3.214c0.491-1.022,1.038-2.191,1.125-4.782C98.984,42.169,99,42.143,99,42.11
		C99,42.068,98.988,42.03,98.987,41.988 M84.481,43.61c1.746,0,3.166,1.421,3.166,3.166v8.915H31.879v-8.915
		c0-1.745,1.42-3.166,3.166-3.166H84.481z M25.383,62.364V50.195c0-2.412-0.536-3.528-1.009-4.512
		c-0.403-0.839-0.78-1.65-0.836-3.684c0.06-2.206,1.852-3.986,4.057-3.986c2.088,0,3.794,1.601,4.023,3.643
		c-1.65,1.107-2.739,2.988-2.739,5.12V63h-2.872C25.662,63,25.383,62.714,25.383,62.364 M31.879,58.691h55.77V63h-55.77V58.691z
		 M94.145,50.195v12.169c0,0.35-0.281,0.636-0.625,0.636h-2.872V46.776c0-2.132-1.088-4.013-2.738-5.12
		c0.228-2.042,1.934-3.643,4.021-3.643c2.206,0,3.997,1.78,4.059,3.986c-0.057,2.033-0.435,2.845-0.837,3.684
		C94.679,46.667,94.145,47.783,94.145,50.195"/>
	<path clip-path="url(#SVGID_2_)" fill="#333333" d="M37.884,27.327c0.828,0,1.5-0.671,1.5-1.5V24.29c0-0.829-0.672-1.5-1.5-1.5
		c-0.828,0-1.5,0.671-1.5,1.5v1.537C36.384,26.656,37.057,27.327,37.884,27.327"/>
	<path clip-path="url(#SVGID_2_)" fill="#333333" d="M81.642,27.327c0.828,0,1.5-0.671,1.5-1.5V24.29c0-0.829-0.672-1.5-1.5-1.5
		s-1.5,0.671-1.5,1.5v1.537C80.142,26.656,80.813,27.327,81.642,27.327"/>
	<path clip-path="url(#SVGID_2_)" fill="#333333" d="M36.384,35.047c0,0.828,0.672,1.5,1.5,1.5c0.828,0,1.5-0.672,1.5-1.5v-1.538
		c0-0.829-0.672-1.5-1.5-1.5c-0.828,0-1.5,0.671-1.5,1.5V35.047z"/>
	<path clip-path="url(#SVGID_2_)" fill="#333333" d="M80.142,35.047c0,0.828,0.672,1.5,1.5,1.5s1.5-0.672,1.5-1.5v-1.538
		c0-0.829-0.672-1.5-1.5-1.5s-1.5,0.671-1.5,1.5V35.047z"/>
	<path clip-path="url(#SVGID_2_)" fill="#333333" d="M18.933,63h-4.175V26.64h10.259c0.828,0,1.5-0.671,1.5-1.5v-3.633
		c0-1.702-0.319-3.365-0.915-4.85L20.565,1.04C20.365,0.421,19.789,0,19.137,0H7.379C6.728,0,6.152,0.421,5.952,1.04L0.947,16.562
		C0.319,18.141,0,19.803,0,21.507v3.633c0,0.829,0.672,1.5,1.5,1.5h10.258V63H8.233c-0.828,0-1.5,0.671-1.5,1.5s0.672,1.5,1.5,1.5
		h10.7c0.829,0,1.5-0.671,1.5-1.5S19.762,63,18.933,63 M3,21.507c0-1.321,0.247-2.612,0.768-3.93L8.471,3h9.574l4.736,14.672
		c0.488,1.225,0.736,2.515,0.736,3.835v2.133H3V21.507z"/>
</g>
</svg>
