<?xml version="1.0" encoding="utf-8"?>
<!-- Generator: Adobe Illustrator 13.0.0, SVG Export Plug-In  -->
<!DOCTYPE svg PUBLIC "-//W3C//DTD SVG 1.1//EN" "http://www.w3.org/Graphics/SVG/1.1/DTD/svg11.dtd" [
	<!ENTITY ns_flows "http://ns.adobe.com/Flows/1.0/">
]>
<svg version="1.1"
	 xmlns="http://www.w3.org/2000/svg" xmlns:xlink="http://www.w3.org/1999/xlink" xmlns:a="http://ns.adobe.com/AdobeSVGViewerExtensions/3.0/"
	 x="0px" y="0px" width="75px" height="60px" viewBox="0 0 75 60" enable-background="new 0 0 75 60" xml:space="preserve">
<defs>
</defs>
<g>
	<defs>
		<rect id="SVGID_1_" width="75" height="60"/>
	</defs>
	<clipPath id="SVGID_2_">
		<use xlink:href="#SVGID_1_"  overflow="visible"/>
	</clipPath>
	<path clip-path="url(#SVGID_2_)" fill="#333333" d="M19.021,16.689l7.88-7.664c0.594-0.577,0.607-1.528,0.029-2.121
		c-0.576-0.592-1.527-0.607-2.121-0.029l-7.88,7.664c-0.594,0.577-0.607,1.527-0.029,2.121c0.294,0.301,0.684,0.454,1.075,0.454
		C18.352,17.114,18.729,16.973,19.021,16.689"/>
	<path clip-path="url(#SVGID_2_)" fill="#333333" d="M32.675,7.97c-0.576-0.592-1.527-0.606-2.121-0.029L18.025,20.124
		c-0.594,0.577-0.607,1.526-0.029,2.121c0.294,0.302,0.684,0.454,1.075,0.454c0.377,0,0.754-0.141,1.046-0.425l12.529-12.183
		C33.241,9.514,33.253,8.565,32.675,7.97"/>
	<path clip-path="url(#SVGID_2_)" fill="#333333" d="M11.183,46.172h3.365c0.829,0,1.5-0.671,1.5-1.5s-0.671-1.5-1.5-1.5h-3.365
		c-0.828,0-1.5,0.671-1.5,1.5S10.355,46.172,11.183,46.172"/>
	<path clip-path="url(#SVGID_2_)" fill="#333333" d="M73.5,37.689H50.768h-6.285v-3.013H64.26c0.829,0,1.5-0.671,1.5-1.5V1.5
		c0-0.829-0.671-1.5-1.5-1.5H11.5C10.672,0,10,0.671,10,1.5v31.677c0,0.829,0.672,1.5,1.5,1.5h19.779v3.013h-7.047H1.5
		c-0.828,0-1.5,0.671-1.5,1.5v16.896c0,0.829,0.672,1.5,1.5,1.5h2.67V58.5c0,0.829,0.672,1.5,1.5,1.5c0.829,0,1.5-0.671,1.5-1.5
		v-0.914h17.062h26.536H67.83V58.5c0,0.829,0.671,1.5,1.5,1.5c0.828,0,1.5-0.671,1.5-1.5v-0.914h2.67c0.828,0,1.5-0.671,1.5-1.5
		V39.189C75,38.36,74.328,37.689,73.5,37.689 M49.268,46.153H25.732v-5.464h23.536V46.153z M25.732,49.153h23.536v5.433H25.732
		V49.153z M13,3h49.76v28.677H13V3z M34.279,34.677h7.204v3.013h-7.204V34.677z M3,40.689h19.732v13.896H3V40.689z M72,54.586
		H52.268V40.689H72V54.586z"/>
	<path clip-path="url(#SVGID_2_)" fill="#333333" d="M60.451,46.172h3.365c0.829,0,1.5-0.671,1.5-1.5s-0.671-1.5-1.5-1.5h-3.365
		c-0.828,0-1.5,0.671-1.5,1.5S59.623,46.172,60.451,46.172"/>
</g>
</svg>
