<?xml version="1.0" encoding="utf-8"?>
<!-- Generator: Adobe Illustrator 26.5.0, SVG Export Plug-In . SVG Version: 6.00 Build 0)  -->
<svg version="1.1" id="Layer_1" xmlns="http://www.w3.org/2000/svg" xmlns:xlink="http://www.w3.org/1999/xlink" x="0px" y="0px"
	 viewBox="0 0 288 288" style="enable-background:new 0 0 288 288;" xml:space="preserve">
<style type="text/css">
	.st0{fill:#C08B2F;}
	.st1{stroke:#C18C2F;stroke-width:6;stroke-miterlimit:10;}
	.st2{opacity:0.5;fill:#C18C2F;}
	.st3{fill:#C18C2F;}
</style>
<g>
	<path class="st0" d="M267.19,160.41c0.23-3.18,0.35-6.39,0.35-9.63h-7.49c0,68.46-54.8,124.16-122.15,124.16
		S15.73,219.24,15.73,150.78H8.24c0,72.66,58.16,131.77,129.65,131.77c48.46,0,90.79-27.17,113.04-67.3
		c1.49,0.24,2.99,0.37,4.49,0.37c4.58,0,9.12-1.14,13.28-3.38c6.71-3.62,11.64-9.67,13.87-17.05
		C286.8,181.17,279.98,166.34,267.19,160.41z M275.4,192.96c-1.64,5.44-5.27,9.9-10.21,12.56c-3.29,1.77-6.89,2.58-10.51,2.45
		c5.81-12.2,9.81-25.45,11.67-39.38C274.27,173.56,278.26,183.5,275.4,192.96z"/>
	<circle class="st1" cx="137.89" cy="147.56" r="109"/>
	<g>
		<path class="st2" d="M141.33,144.43c0.71-22.98,22.95-43.92,46.53-42.72c-3.27,6.08-3.23,12.87-4.15,19.43
			c-1.2,8.48-2.45,16.94-5.78,24.92c-3.45,8.26-8.71,14.88-16.97,18.8c-0.27,0.13-0.54,0.25-0.89,0.27c0.59-0.45,1.19-0.9,1.76-1.36
			c6.43-5.22,9.88-12.2,11.77-20.08c1.78-7.42,2.06-14.95,1.36-22.53c-0.15-1.6-0.42-3.18-0.53-4.78c-0.08-1.12-0.51-1.46-1.65-1.32
			c-12.32,1.6-21.29,8.13-27.49,18.69C143.35,137.07,142.08,140.67,141.33,144.43z"/>
		<path class="st2" d="M87.98,101.68c24.05-0.99,45.67,20.26,46.39,42.82c-0.45-1.61-0.8-3.18-1.32-4.68
			c-0.52-1.51-1.13-3.01-1.85-4.44c-0.73-1.47-1.55-2.92-2.48-4.28c-5.81-8.41-13.6-13.88-23.77-15.73
			c-0.34-0.06-0.69-0.09-1.03-0.14c-3.06-0.42-2.5-0.42-2.84,2.15c-1.23,9.29-1.12,18.55,1.3,27.67c2.1,7.89,5.89,14.73,12.64,19.64
			c0.06,0.05,0.1,0.14,0.34,0.5c-0.73-0.36-1.2-0.58-1.67-0.82c-7.68-3.95-12.61-10.32-15.9-18.12c-2.86-6.77-4.25-13.92-5.3-21.15
			c-0.85-5.92-1.63-11.86-2.63-17.76C89.54,105.41,88.64,103.59,87.98,101.68z"/>
		<path class="st3" d="M66.1,117.01c6.69-2.85,13.45-3.83,20.45-3.38c0.68,0.04,1.24,0.17,1.34,1.06c0.3,2.76,0.66,5.51,1.01,8.38
			c-1.34,0.33-2.61,0.69-3.91,0.96c-0.8,0.17-1.1,0.5-0.9,1.34c2.38,10.07,6.13,19.54,12.52,27.79c4.92,6.35,11.06,11,19.05,12.85
			c-7.85-0.24-14.63-3.14-20.55-8.18c-6.14-5.23-10.66-11.75-14.64-18.67c-2.86-4.96-5.55-10.03-8.39-15
			C70.54,121.49,68.9,118.87,66.1,117.01z"/>
		<path class="st3" d="M160.01,166.12c1.99-0.73,4.04-1.34,5.96-2.22c7.39-3.39,12.55-9.17,16.69-15.97
			c4.21-6.92,7.01-14.42,8.86-22.29c0.23-0.96,0.04-1.46-0.98-1.66c-1.23-0.24-2.43-0.59-3.78-0.92c0.36-2.87,0.72-5.7,1.06-8.53
			c0.12-1.03,0.94-0.89,1.58-0.93c4.05-0.24,8.09-0.09,12.05,0.85c2.69,0.64,5.32,1.51,8.23,2.35c-4.44,3.42-6.54,8.11-8.99,12.52
			c-3.66,6.61-7.17,13.31-11.72,19.37c-5.09,6.78-10.99,12.61-19.2,15.43c-3.12,1.08-6.46,1.54-9.7,2.29
			C160.05,166.32,160.03,166.22,160.01,166.12z"/>
		<path class="st3" d="M104.01,203.75c-6.21-11.33-1.32-29,10.73-35.73c-0.3,0.26-0.62,0.5-0.9,0.79c-6.33,6.46-8.7,14.02-6.33,22.9
			c0.28,1.05,0.64,1.5,1.88,1.1c4.69-1.54,9.16-3.5,13.2-6.35c4.73-3.34,8.42-7.47,9.93-13.26c0.09,2.61-0.56,5.05-1.62,7.38
			c-2.08,4.6-5.45,8.16-9.47,11.07c-3.68,2.67-7.6,5.03-11.36,7.6C108,200.68,106.01,202.26,104.01,203.75z"/>
		<path class="st3" d="M160.88,168.06c11.28,5.95,17.31,23.47,10.6,36.03c-2.1-2.74-5.07-4.32-7.89-6.08
			c-4.87-3.05-9.75-6.06-13.79-10.21c-3.95-4.05-6.56-8.72-6.62-14.55c0.15,0.49,0.29,0.98,0.45,1.46c0.17,0.49,0.35,0.98,0.55,1.46
			c1.85,4.34,5.02,7.58,8.8,10.25c4.04,2.86,8.51,4.85,13.21,6.37c1.24,0.4,1.66,0.03,1.97-1.13c2.31-8.83,0-16.36-6.31-22.8
			C161.56,168.55,161.21,168.32,160.88,168.06z"/>
		<path class="st3" d="M121.25,91.04c10.64,5.95,15.07,19.98,13.59,30.48C133.21,109.9,129.67,99.39,121.25,91.04z"/>
		<path class="st3" d="M139.77,121.31c-1.55-10.26,3.18-24.76,13.56-30.29C143.95,100.63,141.3,111.19,139.77,121.31z"/>
	</g>
	<path class="st3" d="M16.91,106.13c-1.96,0-3.9-0.41-5.74-1.23c-2.06-0.91-3.75-2.22-5.03-3.89c-1.29-1.65-2.09-3.56-2.38-5.69
		C3.5,93.23,3.85,91.1,4.78,89c0.35-0.8,0.76-1.49,1.21-2.07c0.44-0.56,0.95-1.13,1.52-1.71c0.08-0.08,0.15-0.15,0.2-0.23
		c0.1-0.11,0.14-0.14,0.19-0.19c0.05-0.04,0.07-0.07,0.1-0.14c0.01-0.02,0.03-0.09,0.04-0.25l0-0.14l-0.06-0.18l0.1-0.14l0.25-0.57
		l3.15,1.39l-0.37,0.83l-0.29,0.03c-0.45,0.04-0.99,0.21-1.58,0.48c-0.58,0.28-1.16,0.72-1.72,1.28c-0.57,0.58-1.06,1.33-1.45,2.23
		c-0.58,1.3-0.75,2.76-0.52,4.35c0.23,1.6,0.92,3.15,2.06,4.62c1.14,1.46,2.73,2.65,4.71,3.52c1.58,0.7,3.2,1.05,4.81,1.05
		c0.38,0,0.76-0.02,1.14-0.06c2.01-0.2,3.83-0.86,5.41-1.98c1.58-1.1,2.77-2.53,3.54-4.27c0.54-1.22,0.72-2.18,0.52-2.79
		c-0.18-0.59-0.53-0.99-1.07-1.23L18.04,89l-2.11,4.77c-0.03,0.07-0.1,0.23,0.16,0.57l0.19,0.24l-0.39,0.88l-2.01-0.89L18,85.26
		l0.86,0.38l0.04,0.28c0.01,0.07,0.04,0.19,0.16,0.39c0.08,0.13,0.17,0.21,0.29,0.27l8.55,3.78c0.12,0.05,0.24,0.08,0.34,0.08
		c0.15,0,0.3-0.06,0.46-0.18l0.24-0.18l0.88,0.39l-0.2,0.46c-0.01,0.01-0.06,0.15-0.07,0.66c0.01,0.43,0.01,0.68,0.01,0.73
		c-0.04,0.99-0.14,1.98-0.31,2.97c-0.15,0.99-0.43,1.95-0.83,2.85c-1.16,2.62-2.73,4.6-4.66,5.91c-1.94,1.3-4.04,2-6.24,2.08
		C17.31,106.12,17.11,106.13,16.91,106.13z"/>
	<path class="st3" d="M30.54,79.17c-0.37,0-0.75-0.03-1.12-0.1c-1.28-0.22-2.5-0.74-3.6-1.55c-1.1-0.8-1.98-1.8-2.6-2.97
		c-0.6-1.14-0.84-2.42-0.71-3.8c0.12-1.33,0.67-2.67,1.62-3.97c0.94-1.29,2.05-2.22,3.28-2.76c0.92-0.38,1.83-0.57,2.73-0.57
		c0.37,0,0.73,0.03,1.1,0.09c1.31,0.23,2.53,0.76,3.63,1.56c1.11,0.81,1.97,1.81,2.55,2.97c0.59,1.16,0.83,2.43,0.7,3.79
		c-0.12,1.34-0.65,2.67-1.59,3.96c-0.95,1.3-2.05,2.23-3.28,2.76C32.36,78.97,31.45,79.17,30.54,79.17z M28.81,65.82
		c-0.47,0-0.93,0.06-1.37,0.19c-0.85,0.27-1.56,0.79-2.15,1.61c-0.6,0.82-0.88,1.65-0.86,2.54c0.02,0.92,0.3,1.81,0.83,2.64
		c0.53,0.86,1.29,1.66,2.27,2.37c0.96,0.7,1.94,1.18,2.92,1.41c0.49,0.13,0.96,0.19,1.41,0.19c0,0,0,0,0,0
		c0.47,0,0.93-0.07,1.36-0.2c0.85-0.26,1.56-0.78,2.16-1.6c0.59-0.81,0.88-1.67,0.87-2.56c-0.02-0.87-0.3-1.75-0.84-2.63
		c-0.54-0.85-1.3-1.64-2.25-2.33c-0.97-0.71-1.96-1.2-2.95-1.45C29.74,65.88,29.27,65.82,28.81,65.82z"/>
	<path class="st3" d="M46.26,62.29l0.08-0.28c0.09-0.31,0.04-0.55-0.19-0.78l-7.99-8.19c-0.16-0.16-0.32-0.24-0.51-0.24
		c-0.08,0-0.16,0.01-0.25,0.04l-0.28,0.08l-0.67-0.68l2.91-2.83l0.66,0.68l-0.07,0.27c-0.08,0.32-0.03,0.56,0.18,0.78l8.23,8.44
		l2.98-2.9c0.13-0.13,0.22-0.3,0.28-0.52c0.06-0.21,0.09-0.45,0.09-0.71l0-0.21l0.75-0.73l1.06,2.04l-6.59,6.43L46.26,62.29z"/>
	<path class="st3" d="M59.92,49.8l0.11-0.26c0.14-0.31,0.12-0.56-0.05-0.81l-6.59-9.36c-0.16-0.22-0.36-0.32-0.65-0.32l-0.28,0.02
		l-0.26-0.23l-0.38-0.54l4.51-3.18c1.28-0.9,2.6-1.41,3.94-1.53c0.22-0.02,0.44-0.03,0.65-0.03c1.08,0,2.12,0.26,3.07,0.77
		c1.11,0.59,2.07,1.46,2.85,2.57c0.76,1.08,1.24,2.27,1.42,3.54c0.17,1.31-0.02,2.57-0.58,3.76c-0.54,1.2-1.45,2.27-2.72,3.19
		l-4.52,3.18L59.92,49.8z M62.42,47.43l1.67-1.17c0.83-0.58,1.37-1.27,1.65-2.12c0.27-0.81,0.3-1.73,0.08-2.72
		c-0.23-0.96-0.68-1.93-1.33-2.86c-0.66-0.93-1.41-1.68-2.25-2.23c-0.82-0.52-1.68-0.8-2.55-0.82l-0.04-0.5v0.5
		c-0.89,0-1.72,0.27-2.53,0.82l-1.68,1.18L62.42,47.43z"/>
	<path class="st3" d="M78.48,37.77l0.17-0.24c0.24-0.34,0.2-0.54,0.13-0.67l-5.06-10.57c-0.06-0.13-0.19-0.28-0.6-0.31l-0.29-0.02
		l-0.41-0.87l8.84-4.24l1.55,1.7l-0.93,0.45l-0.2-0.07c-0.3-0.11-0.57-0.16-0.81-0.16c-0.19,0-0.35,0.03-0.49,0.1l-4.27,2.05
		l1.68,3.5l2.46-1.18c0.3-0.15,0.44-0.35,0.46-0.67l0.01-0.3l0.87-0.41l1.2,2.5l-0.86,0.41l-0.24-0.15
		c-0.16-0.11-0.32-0.16-0.47-0.16c-0.11,0-0.23,0.03-0.36,0.09l-2.46,1.18l2.94,6.14l4.99-2.39c0.32-0.15,0.58-0.51,0.77-1.05
		l0.07-0.2l0.93-0.45l0.35,2.27l-9.57,4.59L78.48,37.77z"/>
	<path class="st3" d="M96.72,29.82l0.19-0.21c0.23-0.25,0.3-0.49,0.21-0.79l-3.2-10.99c-0.08-0.29-0.27-0.45-0.6-0.54l-0.27-0.07
		l-0.26-0.91l2.42-0.7l8.71,3.89l-1.23-4.21c-0.08-0.29-0.27-0.46-0.59-0.54l-0.28-0.07l-0.26-0.91l2.74-0.8l0.27,0.92l-0.21,0.21
		c-0.22,0.23-0.28,0.45-0.19,0.76l3.2,10.99c0.09,0.31,0.26,0.48,0.57,0.55l0.29,0.06l0.26,0.91l-2.74,0.8l-0.27-0.9l0.19-0.21
		c0.23-0.24,0.29-0.48,0.2-0.78l-0.91-3.12l-9.1-4.09l2.72,9.33c0.09,0.3,0.27,0.47,0.59,0.55l0.27,0.07l0.26,0.9l-2.75,0.8
		L96.72,29.82z"/>
	<path class="st3" d="M141.54,31.19c-1.87-0.07-3.49-0.53-4.82-1.36c-1.32-0.83-2.32-1.93-2.96-3.25c-0.64-1.26-0.94-2.63-0.89-4.07
		c0.04-1.06,0.27-2.07,0.68-3.01c0.43-0.96,1.05-1.8,1.86-2.49c0.72-0.62,1.56-1.08,2.51-1.37l0.32-8.87c0-0.08-0.1-0.21-0.28-0.34
		c-0.38-0.23-0.62-0.32-0.75-0.35l-0.4-0.1l0.04-1.06l8.72,0.31c0.79,0.03,1.51,0.25,2.15,0.67c0.65,0.42,1.16,0.96,1.52,1.62
		c0.35,0.65,0.52,1.39,0.49,2.2c-0.03,0.7-0.21,1.36-0.55,1.95c-0.35,0.61-0.81,1.1-1.36,1.48c-0.14,0.09-0.29,0.18-0.43,0.25
		c1.45,0.68,2.58,1.66,3.38,2.93c1.01,1.64,1.48,3.58,1.4,5.78c-0.06,1.71-0.56,3.29-1.48,4.7c-0.91,1.41-2.18,2.52-3.78,3.29
		c-1.47,0.71-3.11,1.08-4.88,1.08C141.85,31.2,141.7,31.19,141.54,31.19z M137.82,18.01c-0.81,0.36-1.45,0.88-1.95,1.6
		c-0.63,0.9-0.98,1.94-1.02,3.11c-0.04,1.12,0.19,2.22,0.69,3.28c0.49,1.05,1.24,1.92,2.23,2.6c1,0.69,2.2,1.07,3.56,1.11
		c0.12,0,0.24,0.01,0.35,0.01c1.41,0,2.69-0.31,3.8-0.93c1.18-0.64,2.13-1.57,2.84-2.77c0.68-1.19,1.06-2.54,1.11-4
		c0.05-1.46-0.23-2.83-0.84-4.06c-0.61-1.22-1.48-2.23-2.58-2.99c-1.11-0.75-2.35-1.15-3.69-1.2l-1.6-0.06l-0.05,1.54
		c0.05,0,0.11,0,0.17,0.01c1.56,0.06,2.87,0.44,3.89,1.13c1.01,0.69,1.78,1.57,2.27,2.62c0.47,1.07,0.68,2.15,0.64,3.21
		c-0.02,0.55-0.12,1.12-0.3,1.7c-0.17,0.54-0.42,1.02-0.74,1.43l-0.24,0.31l-0.9-0.39l0.19-0.46c0.2-0.49,0.32-1.09,0.34-1.79
		c0.03-0.89-0.13-1.77-0.49-2.62c-0.35-0.81-0.92-1.5-1.71-2.06c-0.79-0.53-1.8-0.82-3-0.87c-0.07,0-0.13,0-0.19-0.01l-0.26,7.34
		c-0.01,0.18,0.02,0.32,0.08,0.4c0.13,0.2,0.21,0.26,0.25,0.28l0.29,0.14l-0.04,0.98l-4.05-0.14l0.04-0.98l0.3-0.12
		c0.08-0.03,0.17-0.11,0.26-0.24c0.08-0.1,0.12-0.23,0.12-0.42L137.82,18.01z M143.83,12.38l0.19,0c0.84,0,1.48-0.2,1.98-0.62
		c0.5-0.42,0.77-1.14,0.81-2.14c0.02-0.54-0.08-1.05-0.3-1.49c-0.24-0.44-0.58-0.8-0.98-1.07c-0.41-0.26-0.91-0.4-1.49-0.42
		l-3.05-0.11l-0.2,5.73L143.83,12.38z"/>
	<path class="st3" d="M161.18,26.2l0.19-0.92l0.27-0.09c0.32-0.11,0.49-0.3,0.55-0.6l2.29-11.21c0.06-0.29-0.03-0.52-0.28-0.76
		L164,12.43l0.19-0.93l3.95,0.81l-0.19,0.94l-0.28,0.09c-0.31,0.1-0.47,0.27-0.54,0.58l-2.29,11.21c-0.06,0.31,0.01,0.54,0.26,0.75
		l0.22,0.19L165.13,27L161.18,26.2z"/>
	<path class="st3" d="M184.24,32.8c-0.54-0.19-0.95-0.42-1.23-0.69c-0.28-0.23-0.5-0.49-0.62-0.75c-0.1-0.2-0.19-0.46-0.28-0.79
		l-1.5-4.71l-1.4-0.5l-1.2,3.38c-0.05,0.15-0.07,0.27-0.03,0.37c0.07,0.21,0.14,0.32,0.19,0.37l0.2,0.22l-0.32,0.9l-3.82-1.36
		l0.31-0.88l0.28-0.06c0.33-0.07,0.53-0.23,0.63-0.51L179.27,17c0.1-0.28,0.05-0.52-0.17-0.79L178.92,16l0.32-0.89l6.82,2.42
		c0.8,0.29,1.5,0.77,2.07,1.43c0.55,0.64,0.91,1.4,1.09,2.25c0.16,0.87,0.09,1.71-0.2,2.52c-0.28,0.8-0.76,1.5-1.42,2.07
		c-0.64,0.55-1.41,0.91-2.28,1.05c-0.27,0.05-0.55,0.07-0.83,0.07c-0.28,0-0.57-0.02-0.86-0.07l1.21,3.58v0c0,0,0.08,0.23,0.22,0.63
		c0.1,0.3,0.23,0.55,0.36,0.75c0.16,0.26,0.25,0.29,0.25,0.29l0.47,0.17l-0.39,1.09L184.24,32.8z M182.22,24.91
		c0.31,0.1,0.64,0.15,0.97,0.15l0,0c0.24,0,0.48-0.03,0.72-0.08c0.53-0.13,1.05-0.39,1.53-0.79c0.42-0.37,0.73-0.84,0.93-1.41
		c0.23-0.64,0.3-1.24,0.23-1.78c-0.08-0.57-0.3-1.07-0.67-1.51c-0.38-0.46-0.92-0.81-1.6-1.05l-2.37-0.84l-2.28,6.41L182.22,24.91z"
		/>
	<path class="st3" d="M202.51,40.78c-1.27,0-2.58-0.37-3.9-1.09l-4.81-2.71l0.46-0.82l0.28-0.01c0.34-0.01,0.56-0.13,0.71-0.4
		l5.62-9.97c0.15-0.26,0.14-0.51-0.03-0.8l-0.14-0.24l0.46-0.83l4.81,2.71c1.36,0.77,2.4,1.74,3.08,2.9
		c0.68,1.15,0.99,2.38,0.93,3.68c-0.06,1.26-0.43,2.5-1.09,3.68c-0.65,1.15-1.52,2.09-2.58,2.81c-1.1,0.72-2.33,1.09-3.65,1.1
		L202.51,40.78z M199.24,38.4c0.72,0.4,1.44,0.61,2.15,0.61c0.16,0,0.31-0.01,0.47-0.03c0.85-0.1,1.69-0.47,2.49-1.09
		c0.77-0.62,1.45-1.44,2.01-2.43c0.56-0.99,0.91-2,1.04-2.99c0.12-0.97,0-1.86-0.35-2.65c-0.38-0.82-0.98-1.46-1.84-1.97l-1.79-1.01
		l-5.95,10.56L199.24,38.4z"/>
	<path class="st3" d="M220.84,55.72l2.1-6.48l-6.16,3.03l-0.65-0.55l4.44-13.7c0.14-0.37,0.12-0.75-0.06-1.18l-0.11-0.28l0.62-0.74
		l3.29,2.8l-0.64,0.76l-0.32-0.1c-0.02,0-0.04,0-0.05,0c-0.05,0-0.1,0.01-0.16,0.02c-0.07,0.02-0.12,0.05-0.17,0.1
		c-0.03,0.04-0.05,0.07-0.07,0.11l-3.14,9.64l3.81-1.88l1.71-5.25c0.07-0.2,0.09-0.39,0.07-0.59c-0.04-0.34-0.09-0.51-0.12-0.59
		l-0.11-0.28l0.62-0.74l3.29,2.8l-0.64,0.76l-0.32-0.1c-0.02,0-0.03,0-0.04,0c-0.05,0-0.09,0.01-0.15,0.03
		c-0.14,0.04-0.2,0.09-0.22,0.12c0,0-0.01,0.03-0.03,0.09l-0.69,2.13l2.04-1c0.09-0.04,0.16-0.1,0.21-0.16
		c0.07-0.08,0.08-0.14,0.04-0.24l-0.12-0.28l0.63-0.74l2.15,1.83l-0.67,0.78l-0.33-0.13c-0.07-0.03-0.14-0.04-0.23-0.04
		c-0.06,0-0.12,0.01-0.19,0.02c-0.43,0.08-0.58,0.16-0.63,0.18l-3.55,1.75l-1.81,5.56l9.2-4.52c0.09-0.04,0.15-0.09,0.21-0.16
		c0.09-0.11,0.08-0.16,0.05-0.23l-0.12-0.28l0.63-0.74l2.14,1.82l-0.67,0.78l-0.33-0.13c-0.04-0.01-0.1-0.03-0.22-0.03
		c-0.06,0-0.13,0.01-0.21,0.01c-0.24,0.03-0.46,0.1-0.65,0.2l-13.01,6.41L220.84,55.72z"/>
	<path class="st3" d="M232.9,67.53l0.72-0.6l0.27,0.09c0.12,0.04,0.23,0.06,0.33,0.06c0.17,0,0.32-0.06,0.47-0.18l8.78-7.34
		c0.23-0.19,0.31-0.43,0.25-0.76l-0.04-0.28l0.73-0.61l2.58,3.09l-0.73,0.62l-0.27-0.1c-0.11-0.04-0.22-0.07-0.32-0.07
		c-0.16,0-0.31,0.06-0.46,0.19l-8.78,7.34c-0.25,0.21-0.33,0.43-0.27,0.75l0.05,0.29l-0.73,0.61L232.9,67.53z"/>
	<path class="st3" d="M246.04,85.78l0.8-0.5l0.25,0.13c0.14,0.07,0.27,0.11,0.4,0.11c0.13,0,0.27-0.04,0.41-0.13l2.75-1.72
		l1.46-9.87l-8.24,5.15c-0.26,0.16-0.38,0.39-0.37,0.71l0.01,0.28l-0.8,0.5l-1.51-2.42l0.79-0.5l0.25,0.13
		c0.15,0.08,0.29,0.11,0.42,0.11c0.13,0,0.26-0.04,0.4-0.12l9.71-6.07c0.25-0.16,0.36-0.38,0.36-0.72l0-0.28l0.81-0.5l1.33,2.13
		l-1.37,9.44l3.72-2.33c0.26-0.16,0.37-0.38,0.36-0.71l0-0.28l0.8-0.5l1.51,2.42l-0.82,0.51l-0.26-0.14
		c-0.13-0.07-0.26-0.11-0.38-0.11c-0.13,0-0.26,0.04-0.41,0.13l-9.7,6.07c-0.28,0.17-0.39,0.38-0.37,0.7l0.02,0.29l-0.81,0.5
		L246.04,85.78z"/>
	<path class="st3" d="M257.39,107.2c-0.44-0.25-0.96-0.77-1.58-1.56c-0.63-0.81-1.11-1.62-1.43-2.39c-0.61-1.5-0.82-2.92-0.62-4.24
		c0.2-1.37,0.73-2.55,1.6-3.52c0.86-0.98,1.95-1.73,3.21-2.25c1.08-0.44,2.2-0.66,3.33-0.66c0.19,0,0.38,0.01,0.57,0.02
		c1.28,0.09,2.49,0.56,3.61,1.39c1.07,0.81,1.92,1.98,2.52,3.47c0.29,0.72,0.49,1.52,0.58,2.39c0.1,0.88,0.11,1.53,0.03,1.96
		l-0.05,0.27l-2.11,0.86l-0.35-0.84l0.16-0.23c0.35-0.49,0.58-1.09,0.67-1.79c0.09-0.7,0-1.4-0.27-2.08
		c-0.38-0.94-0.94-1.62-1.7-2.07c-0.77-0.45-1.65-0.68-2.61-0.68l-0.12,0c-0.99,0-2.05,0.23-3.16,0.68
		c-1.1,0.45-2.02,1.03-2.74,1.74c-0.74,0.71-1.22,1.5-1.45,2.36c-0.23,0.86-0.16,1.73,0.23,2.67c0.25,0.61,0.61,1.23,1.07,1.87
		l4.92-2c0.28-0.12,0.43-0.32,0.48-0.65l0.04-0.28l0.87-0.35l1.53,3.77l-0.88,0.36l-0.23-0.18c-0.16-0.13-0.31-0.19-0.47-0.19
		c-0.1,0-0.21,0.02-0.32,0.07l-4.47,1.82l0,0.13l-0.67,0.27L257.39,107.2z"/>
</g>
</svg>
