<?xml version="1.0" encoding="utf-8"?>
<!-- Generator: Adobe Illustrator 26.5.0, SVG Export Plug-In . SVG Version: 6.00 Build 0)  -->
<svg version="1.1" id="Layer_1" xmlns="http://www.w3.org/2000/svg" xmlns:xlink="http://www.w3.org/1999/xlink" x="0px" y="0px"
	 viewBox="0 0 64 64" style="enable-background:new 0 0 64 64;" xml:space="preserve">
<style type="text/css">
	.st0{fill:#666666;}
	.st1{fill-rule:evenodd;clip-rule:evenodd;fill:#666666;}
</style>
<g>
	<g>
		<path class="st0" d="M21.63,20.12c-1.46,0-2.39,0.79-2.39,2.89v3.14h-4.35V23.3c0-4.69,2.34-7.36,6.86-7.36s6.86,2.68,6.86,7.36
			c0,9.21-9.16,12.64-9.16,17.45c0,0.21,0,0.42,0.04,0.63h8.7v4.18h-13.3v-3.6c0-8.62,9.12-10.04,9.12-18.49
			C24.02,20.83,23.09,20.12,21.63,20.12z"/>
		<path class="st0" d="M30.96,19.95c3.56,0,4.35-1.72,5.06-3.68h3.1v29.29h-4.6V23.22h-3.56V19.95z"/>
	</g>
	<path class="st0" d="M32,2.57c-16.02,0-29,12.98-29,29c0,16.02,12.98,29,29,29s29-12.98,29-29C61,15.55,48.02,2.57,32,2.57z
		 M32,56.98c-14.04,0-25.42-11.38-25.42-25.42S17.96,6.15,32,6.15s25.42,11.38,25.42,25.42S46.04,56.98,32,56.98z"/>
	<g>
		<path class="st0" d="M49.22,29.34h4.71v2.74h-4.71v4.81h-2.74v-4.81h-4.71v-2.74h4.71V24.6h2.74V29.34z"/>
	</g>
</g>
</svg>
