<?xml version="1.0" encoding="utf-8"?>
<!-- Generator: Adobe Illustrator 26.5.0, SVG Export Plug-In . SVG Version: 6.00 Build 0)  -->
<svg version="1.1" id="Layer_1" xmlns="http://www.w3.org/2000/svg" xmlns:xlink="http://www.w3.org/1999/xlink" x="0px" y="0px"
	 viewBox="0 0 64 64" style="enable-background:new 0 0 64 64;" xml:space="preserve">
<style type="text/css">
	.st0{fill:#666666;}
	.st1{fill-rule:evenodd;clip-rule:evenodd;fill:#666666;}
</style>
<g>
	<path class="st0" d="M29.93,39.85c-0.08,1.41-1.25,2.51-2.66,2.51c-0.05,0-0.11,0-0.16-0.01c-0.54-0.03-1.03-0.22-1.43-0.53V56.1
		h35.4V37.64H30.02C30,38.35,29.97,39.09,29.93,39.85z"/>
	<path class="st0" d="M52.87,23.84c-3.52,0-6.42,2.26-6.86,5.2h13.71C59.29,26.11,56.39,23.84,52.87,23.84z"/>
	<path class="st0" d="M44.81,29.75v1.07h1.24c0.17,0.83,0.53,1.61,1.06,2.29v3.74h1.24v-2.53c1.21,0.9,2.79,1.45,4.52,1.45
		c1.73,0,3.31-0.55,4.52-1.45v2.53h1.24v-3.74c0.52-0.68,0.89-1.45,1.06-2.29h1.24v-1.07H44.81z"/>
	<path class="st0" d="M52.87,20.99c-0.61,0-1.11,0.5-1.11,1.11c0,0.61,0.5,1.11,1.11,1.11c0.61,0,1.11-0.5,1.11-1.11
		C53.98,21.49,53.48,20.99,52.87,20.99z"/>
	<path class="st0" d="M41.64,29.04c-0.44-2.93-3.34-5.2-6.86-5.2c-2.58,0-4.83,1.22-6.02,3.03c0.24,0.66,0.45,1.38,0.62,2.16H41.64z
		"/>
	<path class="st0" d="M29.53,29.75c0.34,1.81,0.51,3.93,0.51,6.38c0,0.23,0,0.47-0.01,0.72h0.23v-2.53c1.21,0.9,2.79,1.45,4.52,1.45
		c1.73,0,3.31-0.55,4.52-1.45v2.53h1.24v-3.74c0.52-0.68,0.89-1.45,1.06-2.29h1.24v-1.07H29.53z"/>
	<path class="st0" d="M33.68,22.1c0,0.61,0.5,1.11,1.11,1.11c0.61,0,1.11-0.5,1.11-1.11c0-0.61-0.5-1.11-1.11-1.11
		C34.17,20.99,33.68,21.49,33.68,22.1z"/>
	<path class="st0" d="M11.5,41.22c0.03,0,0.06,0,0.09,0c0.84-0.05,1.48-0.77,1.43-1.61c-0.02-0.35-0.04-0.69-0.05-1.03l1.07-1.8
		l-0.87-0.52l-0.25,0.42c0-0.18,0-0.37,0-0.54c-0.01-4.61,0.67-7.2,1.33-8.55v8.18l1.72-8.33h0.02l-0.63-4.42
		c-0.34,0.04-0.78,0.14-1.27,0.39c-1.02,0.51-2.13,1.62-2.9,3.59c-0.78,1.98-1.31,4.83-1.31,9.15c0,1.12,0.04,2.33,0.11,3.65
		c0.02,0.41,0.21,0.77,0.48,1.02L9.87,41.8l-2.79,4.69L5.6,45.61l-2.67,4.5l3.85,2.29l2.67-4.5l-1.49-0.88l2.82-4.75l0.62-1.05
		C11.43,41.22,11.46,41.22,11.5,41.22z M4.04,49.67l1.65-2.78l0.49,0.29l-1.65,2.78L4.04,49.67z M5.08,50.29l1.65-2.78l0.49,0.29
		l-1.65,2.78L5.08,50.29z M6.62,51.2l-0.49-0.29l1.65-2.78l0.49,0.29L6.62,51.2z"/>
	<polygon class="st0" points="16.24,23 16.87,27.43 19.33,27.43 21.9,27.43 22.53,23 21.88,23 22.17,21.85 22.19,21.77 21.92,21.85 
		19.8,22.55 19.8,24.16 19.04,24.16 19.04,22.57 16.84,21.85 16.58,21.77 16.6,21.85 16.89,23 	"/>
	<path class="st0" d="M22.76,27.69l1.77,8.59V27.6c0.11,0.23,0.23,0.5,0.34,0.81c0.54,1.49,0.99,3.93,0.99,7.74
		c0,1.05-0.03,2.2-0.11,3.47c-0.05,0.84,0.59,1.56,1.43,1.61c0.03,0,0.06,0,0.09,0c0.8,0,1.47-0.62,1.52-1.43
		c0.08-1.32,0.11-2.53,0.11-3.65c-0.01-5.75-0.93-8.93-2.18-10.84c-0.63-0.95-1.36-1.56-2.03-1.9c-0.49-0.25-0.94-0.35-1.27-0.39
		L22.76,27.69z"/>
	<path class="st0" d="M19.82,46.51v9.64c0,1.3,1.05,2.35,2.35,2.35c1.3,0,2.35-1.05,2.35-2.35V45.41
		C23.65,45.76,21.78,46.41,19.82,46.51z"/>
	<path class="st0" d="M14.23,45.45v10.69c0,1.3,1.05,2.35,2.35,2.35c1.3,0,2.35-1.05,2.35-2.35v-9.63
		C17.02,46.43,15.17,45.82,14.23,45.45z"/>
	<path class="st0" d="M20.08,21.85c2.03-0.33,3.59-2.1,3.59-4.23c0-0.7-0.17-1.36-0.47-1.95c-0.64-0.22-2.36-0.76-3.81-0.76
		c-1.45,0-3.18,0.54-3.81,0.76c-0.3,0.58-0.47,1.25-0.47,1.95c0,2.13,1.55,3.89,3.59,4.23c0.23,0.04,0.46,0.06,0.7,0.06
		C19.62,21.91,19.85,21.89,20.08,21.85z"/>
	<path class="st0" d="M19.38,14.34c1.59,0,3.52,0.66,3.97,0.82c0.06,0.02,0.1,0.03,0.1,0.03s-0.14-0.69-0.17-1.45
		c-0.03-0.78,0.05-1.64,0.51-1.87c0.58-0.29,1.98-0.97,2.21-1.94c0.13-0.53-0.09-1.16-0.97-1.85c-0.22,0.22-0.66,0.58-1.39,0.79
		c0.2-0.2,0.63-0.75,0.92-1.14c-0.86-0.61-1.54-1.06-2.12-1.38c-0.18,0.27-0.49,0.64-1.02,0.96c0.13-0.23,0.35-0.78,0.52-1.22
		c-0.96-0.47-1.66-0.58-2.56-0.58c-0.9,0-1.61,0.11-2.56,0.58c0.17,0.44,0.39,0.99,0.52,1.23c-0.52-0.33-0.84-0.69-1.02-0.96
		c-0.58,0.33-1.26,0.77-2.12,1.38c0.29,0.39,0.71,0.94,0.92,1.14c-0.74-0.22-1.18-0.57-1.39-0.79c-0.88,0.7-1.1,1.32-0.97,1.85
		c0.24,0.98,1.64,1.65,2.21,1.94c0.47,0.23,0.55,1.09,0.51,1.87c-0.03,0.76-0.17,1.45-0.17,1.45s0.03-0.01,0.1-0.03
		C15.86,15,17.79,14.34,19.38,14.34z"/>
</g>
</svg>
