<?xml version="1.0" encoding="utf-8"?>
<!-- Generator: Adobe Illustrator 26.5.0, SVG Export Plug-In . SVG Version: 6.00 Build 0)  -->
<svg version="1.1" id="Layer_1" xmlns="http://www.w3.org/2000/svg" xmlns:xlink="http://www.w3.org/1999/xlink" x="0px" y="0px"
	 viewBox="0 0 64 64" style="enable-background:new 0 0 64 64;" xml:space="preserve">
<style type="text/css">
	.st0{fill:#666666;}
	.st1{fill-rule:evenodd;clip-rule:evenodd;fill:#666666;}
</style>
<g>
	<g>
		<path class="st0" d="M32.9,36.79c0.1,0,0.2-0.03,0.29-0.06l0.08,1.05h2.91l0.29-4.17h-3.49l0.05,0.75
			c-0.04-0.01-0.08-0.02-0.12-0.02c-0.53,0-0.97,0.55-0.97,1.22C31.92,36.25,32.36,36.79,32.9,36.79z M32.9,34.67
			c0.05,0,0.1,0.01,0.15,0.02l0.12,1.72c-0.08,0.04-0.17,0.07-0.27,0.07c-0.4,0-0.72-0.41-0.72-0.9
			C32.18,35.07,32.5,34.67,32.9,34.67z"/>
		<path class="st0" d="M38.39,37.78h3.44c1.09-0.17,1.86-0.49,1.93-0.86h-7.31C36.54,37.3,37.3,37.62,38.39,37.78z"/>
		<polygon class="st0" points="32.97,39.87 45.83,39.87 45.83,38.05 19.78,38.05 19.78,39.87 31.53,39.87 31.53,54.21 25.3,54.21 
			25.3,56.17 31.53,56.17 32.97,56.17 39.19,56.17 39.19,54.21 32.97,54.21 		"/>
		<path class="st0" d="M55.72,29.75c0.72-0.9,0.59-2.1-0.16-2.56c-0.76-0.46-1.76-0.17-2.35,0.57c-2.63,3.27-6.48,5.22-10.65,5.42
			c-0.11,0-0.38,0.05-0.41,0.06c-0.76,0.17-1.4,0.75-1.46,1.51c-0.06,0.74,0.55,1.42,1.43,1.6c0.06,0.01,0.26,0.05,0.31,0.05
			C47.6,36.23,52.48,33.79,55.72,29.75z"/>
		<path class="st0" d="M40.06,23.04c2.39,3.08,5.72,5.26,9.43,6.25c0.05-1.15,0.5-2.19,1.2-3.01c-2.95-0.7-5.61-2.3-7.62-4.62h2.69
			c0.2,0.4,0.78,0.69,1.47,0.69c0.85,0,1.54-0.43,1.55-0.97h-2.68H45.7h-2.85c-0.04-0.05-0.08-0.09-0.11-0.14
			c-0.07-0.08-0.26-0.28-0.29-0.29c-0.59-0.51-1.43-0.69-2.08-0.29c-0.63,0.39-0.83,1.28-0.45,2.1
			C39.95,22.82,40.04,23.01,40.06,23.04z"/>
		<path class="st0" d="M60.69,32.52c-0.49,0-0.89,0.4-0.89,0.89V44.5v0.69H49.54v1.34v0.45v9.21h1.47V50.2h9.09v5.98h1.47v-9.21
			v-0.45V44.5V33.41C61.58,32.92,61.18,32.52,60.69,32.52z M60.11,49.77h-9.09v-2.8h9.09V49.77z"/>
		<path class="st0" d="M53.77,24.2c2.42,0,4.38-1.96,4.38-4.38c0-2.42-1.96-4.38-4.38-4.38c-2.42,0-4.38,1.96-4.38,4.38
			C49.39,22.24,51.35,24.2,53.77,24.2z"/>
		<path class="st0" d="M57.77,44.68c0.73,0.03,1.35-0.59,1.38-1.37l-0.07-3.92l-0.02,0v-9.88c0-2.57-2.09-4.66-4.66-4.66
			c-2.57,0-4.66,2.09-4.66,4.66v1.04c1.22-0.81,2.32-1.8,3.26-2.96c0.44-0.56,1.1-0.89,1.75-0.89c0.34,0,0.66,0.09,0.94,0.26
			c0.39,0.24,0.65,0.64,0.73,1.12c0.11,0.62-0.07,1.28-0.5,1.82c-1.69,2.11-3.8,3.79-6.18,4.94v4.91c0,0.16,0.01,0.31,0.02,0.46
			l-0.04,0c-1.77,0.01-4.95,0.09-5.07,0.1c-0.7,0.08-1.18,0.46-1.45,0.94c-0.22,0.4-0.3,0.87-0.24,1.3l-0.5,11.11
			c0,0-0.25,2.5,2.16,2.5c2.13,0,2.11-2.51,2.11-2.51C46.72,53.62,47,44.7,47,44.7L57.77,44.68z"/>
	</g>
	<g>
		<path class="st0" d="M27.02,26.29c0.05,0.04,0.13,0.14,0.18,0.26c0.05,0.14,0.04,0.36,0.04,0.36v1.74c0,0,0.01,0.33-0.02,0.41
			c-0.03,0.09-0.71,0.24-0.71,0.34h0.85h0.85c0-0.1-0.68-0.25-0.71-0.34c-0.02-0.07-0.02-0.41-0.02-0.41V26.9
			c0,0-0.01-0.23,0.04-0.36c0.04-0.12,0.12-0.21,0.18-0.26c0.41-0.35,0.95-0.66,0.9-1.51c-0.02-0.31-0.2-1.38-0.26-1.74h-0.98h-0.98
			c-0.06,0.35-0.24,1.43-0.26,1.74C26.07,25.62,26.61,25.94,27.02,26.29z"/>
		<path class="st0" d="M23.11,26.11c0,0-0.09,0.1-0.08,0.12c0.01,0.02,0.06,0.02,0.14,0c0,0,0,0.03,0.02,0.04
			c0.02,0.01,0.1-0.03,0.13-0.06c0,0-0.01,0.05,0,0.06c0.04,0.01,0.15-0.17,0.22-0.13c0.06,0.03-0.09,0.14-0.12,0.17
			c0,0,0,0.01,0.02,0.01c0.02,0-0.03,0.07-0.04,0.08c-0.01,0.01,0.02,0.02,0.03,0.02c0.01,0-0.02,0.12,0,0.13
			c0.02,0.01,0.07-0.05,0.07-0.04c0,0.01,0,0.17,0.01,0.17c0.01,0,0.09-0.08,0.09-0.06c0,0.02-0.01,0.08,0.01,0.1
			c0.01,0.02,0.06-0.04,0.07-0.03c0.01,0.01-0.01,0.08,0.01,0.09c0.01,0.01,0.04-0.02,0.05,0c0,0.01,0.05,0.08,0.12,0.1
			c0,0,0.01,0,0.01,0c0,0,0,0,0,0c0,0,0,0,0,0c0.06-0.02,0.12-0.09,0.12-0.1c0.01-0.01,0.04,0.01,0.05,0c0.02-0.01,0-0.08,0.01-0.09
			c0.01-0.01,0.06,0.05,0.07,0.03c0.01-0.02,0.01-0.08,0.01-0.1c0-0.02,0.08,0.06,0.09,0.06c0.02-0.01,0.01-0.16,0.01-0.17
			c0-0.01,0.05,0.04,0.07,0.04c0.03-0.01,0-0.13,0-0.13c0.01,0,0.04-0.01,0.03-0.02c-0.01-0.01-0.06-0.08-0.04-0.08
			c0.02,0,0.02-0.01,0.02-0.01c-0.03-0.02-0.18-0.14-0.12-0.17c0.07-0.04,0.19,0.14,0.22,0.13c0.02,0,0-0.06,0-0.06
			c0.03,0.03,0.11,0.07,0.13,0.06c0.02-0.01,0.02-0.04,0.02-0.04c0.08,0.01,0.13,0.02,0.14,0c0.01-0.03-0.08-0.12-0.08-0.12
			c0.05,0,0.09-0.04,0.09-0.06c0-0.02-0.13-0.07-0.13-0.07c0.05-0.01,0.08-0.04,0.08-0.06c0-0.03-0.15-0.07-0.15-0.07
			c0.03-0.01,0.08-0.03,0.09-0.05c0.01-0.02-0.19-0.06-0.19-0.06c0.03-0.02,0.16-0.11,0.15-0.14c-0.01-0.02-0.03-0.04-0.11-0.04
			c-0.07,0-0.18,0.04-0.2,0.05c0,0,0,0,0,0c-0.01-0.01,0.08-0.13,0.05-0.16c-0.02-0.02-0.14,0.07-0.15,0.07
			c-0.01,0-0.02-0.03-0.03-0.03c-0.01,0-0.04,0.06-0.06,0.06c-0.01,0-0.04-0.04-0.04-0.03s-0.01,0.11-0.06,0.16
			c-0.03,0.03-0.07,0.06-0.1,0.06c0-0.13,0.02-0.32,0.11-0.39l-0.06-0.02c-0.07,0.05-0.08,0.18-0.09,0.34c0,0.03,0,0.05,0,0.07
			c-0.02-0.01-0.06-0.03-0.09-0.06c-0.05-0.05-0.06-0.14-0.06-0.16s-0.03,0.03-0.04,0.03c-0.02,0-0.04-0.07-0.06-0.06
			c-0.01,0-0.02,0.03-0.03,0.03c-0.01,0-0.13-0.09-0.15-0.07c-0.02,0.02,0.06,0.15,0.05,0.16c0,0-0.13-0.05-0.2-0.05
			c-0.08,0-0.1,0.02-0.11,0.04c-0.01,0.02,0.12,0.12,0.15,0.14c0,0-0.2,0.04-0.19,0.06c0.01,0.02,0.06,0.05,0.09,0.05
			c0,0-0.15,0.04-0.15,0.07c0,0.02,0.03,0.05,0.08,0.06c0,0-0.13,0.06-0.13,0.07C23.01,26.07,23.06,26.11,23.11,26.11z"/>
		<path class="st0" d="M22.19,29.08c0.03,0.17,0.22,0.31,0.44,0.31h2.47c0.23,0,0.42-0.14,0.45-0.32c0-0.01,0-0.02,0-0.03
			c0,0,0.18-2.38,0.11-4.07c-0.05-1.16-0.81-2.02-1.12-2.63c-0.24-0.47-0.2-1.85-0.17-2.42h0.01c0.08,0,0.15-0.07,0.15-0.15v-0.19
			c0-0.08-0.07-0.15-0.15-0.15h-0.02l0.02-0.25c0.01-0.09-0.06-0.17-0.16-0.17h-0.72c-0.09,0-0.16,0.08-0.16,0.17l0.02,0.25h-0.02
			c-0.08,0-0.15,0.07-0.15,0.15v0.19c0,0.08,0.07,0.15,0.15,0.15h0.01c0.03,0.57,0.06,1.95-0.17,2.42
			c-0.31,0.61-1.08,1.47-1.12,2.63c-0.07,1.69,0.11,4.07,0.11,4.07C22.19,29.05,22.19,29.07,22.19,29.08z M22.18,25.02h3.38
			c0.02,0.58,0.02,1.3-0.01,2.14H22.2C22.17,26.32,22.16,25.6,22.18,25.02z"/>
		<path class="st0" d="M6.59,16.25c2.42,0.58,4.82-0.81,5.37-3.11c0.55-2.29-0.97-4.61-3.39-5.19C6.14,7.38,3.74,8.77,3.2,11.06
			C2.65,13.35,4.17,15.68,6.59,16.25z"/>
		<path class="st0" d="M9.29,17.99l-0.37,0.05c-0.02,0-0.03,0.02-0.04,0.03c-0.3-0.16-0.55-0.3-0.9-0.36c0.08,0.6,0.12,0.9,0.2,1.5
			c0.32-0.15,0.53-0.35,0.77-0.59c0.02,0.01,0.03,0.02,0.05,0.01l0.37-0.05c0.02,0,0.03-0.02,0.04-0.03c0.3,0.16,0.55,0.3,0.9,0.36
			c-0.08-0.6-0.12-0.9-0.2-1.5C9.79,17.56,9.58,17.77,9.33,18C9.32,17.99,9.3,17.98,9.29,17.99z"/>
		<path class="st0" d="M29.99,29.55h-8.48c0.15-0.21,0.25-0.45,0.27-0.71c0.06-0.84-0.54-1.58-1.34-1.89
			c-0.03-0.01-0.32-0.11-0.43-0.13c-2.61-0.53-4.99-1.68-7-3.32v3.17c-2.23-1.54-4.07-3.63-5.3-6.13c-0.45-0.94-1.47-1.49-2.4-1.17
			c-0.93,0.32-1.34,1.58-0.79,2.72c2.52,5.15,7.21,8.95,12.76,10.35c0.05,0.01,0.28,0.02,0.34,0.02c1,0.02,1.82-0.57,1.93-1.38
			c0.04-0.26,0-0.52-0.08-0.76c0.04,0.01,0.09,0.02,0.13,0.03c0.05,0.01,0.28,0,0.34,0c0.09,0,0.17-0.02,0.25-0.03h9.79V29.55z"/>
		<path class="st0" d="M4.26,22.21c-0.33-0.68-0.37-1.44-0.11-2.08c0.21-0.5,0.58-0.87,1.05-1.03c0.2-0.07,0.42-0.11,0.63-0.11
			c0.86,0,1.69,0.56,2.11,1.42c1.13,2.28,2.78,4.23,4.78,5.71v-3.59c0-1.63-0.76-3.07-1.93-4.02l1.27,5.76l-5.65-6.75
			c-2.29,0.53-3.99,2.57-3.99,5.02v11.33c0,2.03,1.18,3.78,2.88,4.62C5.87,43.32,5.82,48,5.22,53.14c-0.01,0.06-0.05,0.37-0.07,0.46
			c-0.19,1.09,0.74,2.21,2.12,2.51c1.38,0.29,2.71-0.44,2.92-1.64c0.02-0.1,0.09-0.58,0.1-0.72c0.65-5.38,0.68-10.42,0.08-15.56
			c1.41-0.92,2.35-2.51,2.35-4.32v-2.9C9.09,29.03,6.12,25.99,4.26,22.21z"/>
	</g>
</g>
</svg>
