<?xml version="1.0" encoding="utf-8"?>
<!-- Generator: Adobe Illustrator 26.5.0, SVG Export Plug-In . SVG Version: 6.00 Build 0)  -->
<svg version="1.1" id="Layer_1" xmlns="http://www.w3.org/2000/svg" xmlns:xlink="http://www.w3.org/1999/xlink" x="0px" y="0px"
	 viewBox="0 0 64 64" style="enable-background:new 0 0 64 64;" xml:space="preserve">
<style type="text/css">
	.st0{fill:#666666;}
	.st1{fill-rule:evenodd;clip-rule:evenodd;fill:#666666;}
</style>
<g id="WIFI_Icon_1_">
	<path class="st0" d="M24.18,41.36c-0.69,0-1.38-0.26-1.91-0.79c-1.05-1.05-1.05-2.77,0-3.82c2.6-2.6,6.06-4.03,9.73-4.03
		c3.67,0,7.13,1.43,9.73,4.03c1.05,1.05,1.05,2.77,0,3.82c-1.06,1.05-2.77,1.05-3.82,0c-3.26-3.26-8.56-3.26-11.82,0
		C25.56,41.09,24.87,41.36,24.18,41.36z"/>
	<path class="st0" d="M16.36,34.62c-0.69,0-1.38-0.26-1.91-0.79c-1.05-1.05-1.05-2.77,0-3.82c4.69-4.69,10.92-7.27,17.55-7.27
		c6.63,0,12.86,2.58,17.55,7.27c1.05,1.05,1.05,2.77,0,3.82c-1.06,1.05-2.77,1.05-3.82,0c-3.67-3.67-8.55-5.69-13.73-5.69
		c-5.18,0-10.06,2.02-13.73,5.69C17.74,34.35,17.05,34.62,16.36,34.62z"/>
	<path class="st0" d="M8.54,27.88c-0.69,0-1.38-0.26-1.91-0.79c-1.05-1.05-1.05-2.77,0-3.82c3.43-3.43,7.42-6.08,11.87-7.89
		c4.3-1.74,8.84-2.63,13.5-2.63c4.66,0,9.2,0.88,13.5,2.63c4.45,1.81,8.44,4.46,11.87,7.89c1.05,1.05,1.05,2.77,0,3.82
		c-1.06,1.05-2.77,1.05-3.82,0c-11.88-11.88-31.21-11.88-43.09,0C9.93,27.62,9.23,27.88,8.54,27.88z"/>
	<circle class="st0" cx="32" cy="46.65" r="4.59"/>
</g>
</svg>
