<?xml version="1.0" encoding="utf-8"?>
<!-- Generator: Adobe Illustrator 26.5.0, SVG Export Plug-In . SVG Version: 6.00 Build 0)  -->
<svg version="1.1" id="Layer_1" xmlns="http://www.w3.org/2000/svg" xmlns:xlink="http://www.w3.org/1999/xlink" x="0px" y="0px"
	 viewBox="0 0 64 64" style="enable-background:new 0 0 64 64;" xml:space="preserve">
<style type="text/css">
	.st0{fill:#666666;}
	.st1{fill-rule:evenodd;clip-rule:evenodd;fill:#666666;}
</style>
<g>
	<g>
		
			<rect x="22.55" y="1.09" transform="matrix(0.9659 -0.2588 0.2588 0.9659 -2.8378 6.4979)" class="st1" width="1.42" height="25.87"/>
		<g>
			<path class="st1" d="M29.06,49.04c-0.11,0-0.22,0-0.33-0.01v5.43c0,1.74-0.49,3.36-1.34,4.74c-0.46,0.75-1.03,1.43-1.68,2.02
				h6.69c-0.65-0.59-1.22-1.27-1.68-2.02c-0.85-1.38-1.34-3.01-1.34-4.74v-5.43C29.28,49.04,29.17,49.04,29.06,49.04L29.06,49.04z
				 M27.3,48.95C16.67,47.87,13.23,36.88,16.95,27c1.21-3.21,2.33-6.19-0.01-14.95c-0.13-0.5,0.19-0.94,0.71-0.94h22.82
				c0.52,0,0.84,0.43,0.71,0.94c-2.34,8.77-1.22,11.75-0.01,14.95c3.72,9.88,0.28,20.87-10.35,21.95v5.52c0,1.47,0.41,2.84,1.12,4
				c0.71,1.16,1.72,2.11,2.92,2.76h4.41c0.39,0,0.71,0.32,0.71,0.71c0,0.39-0.32,0.71-0.71,0.71H18.85c-0.39,0-0.71-0.32-0.71-0.71
				c0-0.39,0.32-0.71,0.71-0.71h4.41c1.2-0.65,2.21-1.6,2.92-2.76c0.71-1.16,1.12-2.53,1.12-4V48.95L27.3,48.95z M18.53,12.53
				c2.16,8.55,1,11.64-0.26,14.97c-3.55,9.42-0.23,20.12,10.78,20.12c11.01,0,14.33-10.7,10.78-20.12
				c-1.25-3.32-2.42-6.42-0.26-14.97H18.53z"/>
			<path class="st1" d="M21.16,21.01c0,0.22-0.01,0.43-0.02,0.64c-0.11,2.09-0.58,3.81-1.3,5.76c-0.07,0.2-0.15,0.39-0.22,0.59
				c-1.74,4.61-2.02,10.79,1.33,14.79c2.06,2.45,4.99,3.4,8.12,3.4c3.13,0,6.06-0.95,8.12-3.4c3.35-4,3.06-10.17,1.33-14.79
				c-0.07-0.2-0.15-0.39-0.22-0.59c-0.72-1.95-1.19-3.67-1.3-5.76c-0.01-0.21-0.02-0.43-0.02-0.64H21.16z"/>
		</g>
	</g>
	<path class="st1" d="M40.28,3.64c-3.78,0-6.96,2.55-7.92,6.03h1.72c0.9-2.55,3.33-4.38,6.19-4.38c3.63,0,6.57,2.94,6.57,6.57
		c0,2.71-1.64,5.03-3.97,6.04v1.76c3.26-1.09,5.62-4.16,5.62-7.79C48.5,7.32,44.82,3.64,40.28,3.64z"/>
</g>
</svg>
