<?xml version="1.0" encoding="utf-8"?>
<!-- Generator: Adobe Illustrator 26.5.0, SVG Export Plug-In . SVG Version: 6.00 Build 0)  -->
<svg version="1.1" id="Layer_1" xmlns="http://www.w3.org/2000/svg" xmlns:xlink="http://www.w3.org/1999/xlink" x="0px" y="0px"
	 viewBox="0 0 64 64" style="enable-background:new 0 0 64 64;" xml:space="preserve">
<style type="text/css">
	.st0{fill:#666666;}
	.st1{fill-rule:evenodd;clip-rule:evenodd;fill:#666666;}
</style>
<g>
	<g>
		<g id="g3016_2_">
			<g id="g3022_2_">
				<rect x="46.77" y="32.73" class="st0" width="1.79" height="5.41"/>
				<rect x="49.57" y="32.73" class="st0" width="1.79" height="5.41"/>
			</g>
			<path class="st0" d="M43.77,25.03h-4.81c-1.08,0-1.66-0.61-1.95-1.13c-0.51-0.89-0.51-2.1-0.02-2.95
				c0.17-0.29,0.16-0.64-0.01-0.92c-0.17-0.28-0.48-0.45-0.82-0.43c-1.35,0.08-2.5-0.28-3.32-1.05c-0.7-0.66-1.11-1.59-1.11-2.53
				c0-1.24,0.72-3.57,3.43-3.65v-1.79c-3.43,0.07-5.23,2.77-5.23,5.44c0,1.44,0.61,2.84,1.67,3.84c0.66,0.62,1.73,1.32,3.32,1.5
				c-0.25,1.14-0.08,2.41,0.51,3.43c0.74,1.29,2.01,2.03,3.5,2.03h4.81c1.37,0,3,0.45,3,2.58v2.45h1.79V29.4
				C48.56,26.7,46.73,25.03,43.77,25.03z"/>
		</g>
		<rect x="12.35" y="32.82" class="st0" width="33.42" height="5.35"/>
		<path class="st0" d="M43.86,20.76h-1.31c0.37-0.84,0.57-1.73,0.57-2.56c0-3.32-2.63-5.83-6.15-5.88v1.79
			c2.53,0.05,4.35,1.75,4.35,4.09c0,0.94-0.39,2.04-1.04,2.93c-0.2,0.27-0.23,0.63-0.07,0.93c0.15,0.3,0.46,0.49,0.8,0.49h2.84
			c3.71,0,5.71,3.09,5.71,6v3.29h1.79v-3.29C51.35,24.72,48.55,20.76,43.86,20.76z"/>
	</g>
	<path class="st0" d="M2.15,32c0,7.97,3.1,15.47,8.74,21.11S24.03,61.85,32,61.85s15.47-3.1,21.11-8.74
		c5.64-5.64,8.74-13.13,8.74-21.11s-3.1-15.47-8.74-21.11C47.47,5.26,39.97,2.15,32,2.15s-15.47,3.1-21.11,8.74
		C5.26,16.53,2.15,24.03,2.15,32z M51.39,48.09L15.9,12.62c4.37-3.64,9.99-5.83,16.1-5.83C45.9,6.79,57.21,18.1,57.21,32
		C57.21,38.11,55.03,43.72,51.39,48.09z M6.79,32c0-6.12,2.2-11.75,5.84-16.12l35.5,35.48c-4.37,3.65-10,5.85-16.13,5.85
		C18.1,57.21,6.79,45.9,6.79,32z"/>
</g>
</svg>
