<?xml version="1.0" encoding="utf-8"?>
<!-- Generator: Adobe Illustrator 26.5.0, SVG Export Plug-In . SVG Version: 6.00 Build 0)  -->
<svg version="1.1" id="Layer_1" xmlns="http://www.w3.org/2000/svg" xmlns:xlink="http://www.w3.org/1999/xlink" x="0px" y="0px"
	 viewBox="0 0 64 64" style="enable-background:new 0 0 64 64;" xml:space="preserve">
<style type="text/css">
	.st0{fill:#666666;}
	.st1{fill-rule:evenodd;clip-rule:evenodd;fill:#666666;}
</style>
<g id="HOT_MEAL_WITH_STICKS">
	<path id="bowl_6_" class="st0" d="M45.14,34.2L45.14,34.2H2.25c-0.22,0-0.4,0.18-0.4,0.4c0,0,0,0,0,0.01
		c0,5.94,1.81,11.4,5.09,15.4c2.14,2.6,4.85,4.53,8.02,5.74v2.1c0,0.21,0.22,0.37,0.5,0.37h0.66h1.27h0.66h11.26h0.66h1.27h0.66
		c0.28,0,0.5-0.17,0.5-0.37v-2.1c3.18-1.21,5.88-3.14,8.02-5.74c3.28-3.99,5.09-9.46,5.09-15.39c0-0.01,0-0.01,0-0.02
		C45.54,34.37,45.36,34.2,45.14,34.2z M12.23,51.09c-0.16,0.19-0.39,0.29-0.62,0.29c-0.18,0-0.36-0.06-0.51-0.18
		c-0.85-0.7-1.64-1.49-2.35-2.36c-2.42-2.95-3.98-6.78-4.49-11.08c-0.05-0.44,0.26-0.83,0.7-0.89c0.44-0.05,0.83,0.26,0.89,0.7
		c0.48,4,1.91,7.55,4.14,10.26c0.64,0.78,1.36,1.5,2.13,2.14C12.46,50.25,12.51,50.75,12.23,51.09z"/>
	<g id="heat_4_">
		<path class="st0" d="M28.3,19.82c-1.11-0.74-1.78-1.74-1.93-2.89c-0.18-1.35,0.36-2.85,1.48-4.14c0.08-0.09,0.1-0.22,0.05-0.33
			c-0.05-0.11-0.16-0.19-0.28-0.19l-0.01,0l0,0c0,0-0.01,0-0.01,0c0,0-0.01,0-0.01,0c-0.05,0-0.11,0.01-0.15,0.04
			c-2.87,1.59-4.36,3.27-4.43,5.01c-0.07,1.65,1.14,3.32,3.59,4.95c2.11,1.41,3.25,2.92,3.37,4.48c0.14,1.76-1.07,3.09-1.6,3.59
			c-0.09,0.09-0.12,0.22-0.08,0.34c0.04,0.12,0.15,0.2,0.28,0.21c0.01,0,0.02,0,0.02,0l0,0l0.02,0c0.01,0,0.01,0,0.02,0
			c0.06,0,0.11-0.02,0.16-0.05c2.31-1.41,4.7-2.87,4.74-4.92C33.57,24.17,31.9,22.23,28.3,19.82z"/>
		<path class="st0" d="M19.14,19.82c-1.11-0.74-1.78-1.74-1.93-2.89c-0.18-1.35,0.36-2.85,1.49-4.14c0.08-0.09,0.1-0.22,0.05-0.33
			c-0.05-0.11-0.16-0.19-0.28-0.19l-0.01,0l0,0c0,0-0.01,0-0.01,0c0,0-0.01,0-0.01,0c-0.05,0-0.11,0.01-0.15,0.04
			c-2.87,1.59-4.36,3.27-4.43,5.01c-0.07,1.65,1.14,3.32,3.59,4.95c2.11,1.41,3.25,2.92,3.37,4.48c0.14,1.76-1.07,3.09-1.6,3.59
			c-0.09,0.09-0.12,0.22-0.08,0.34c0.04,0.12,0.15,0.2,0.28,0.21c0.01,0,0.02,0,0.02,0l0,0l0.02,0c0.01,0,0.01,0,0.02,0
			c0.06,0,0.11-0.02,0.16-0.05c2.31-1.41,4.7-2.87,4.74-4.92C24.42,24.17,22.75,22.23,19.14,19.82z"/>
	</g>
	<g id="sticks_4_">
		<path class="st0" d="M62.12,53.54L43.8,6.03c-0.04-0.09-0.11-0.17-0.2-0.21c-0.09-0.04-0.19-0.04-0.28-0.01l-1.04,0.4
			c-0.19,0.07-0.29,0.29-0.21,0.48l18.32,47.5c0.04,0.09,0.11,0.17,0.2,0.21c0.05,0.02,0.1,0.03,0.15,0.03
			c0.05,0,0.09-0.01,0.13-0.03l1.04-0.4C62.1,53.94,62.19,53.73,62.12,53.54z"/>
		<g>
			<path class="st0" d="M50.9,21.35V6.92c0-0.21-0.17-0.37-0.37-0.37h-1.12c-0.21,0-0.37,0.17-0.37,0.37v9.6L50.9,21.35z"/>
			<path class="st0" d="M49.04,27.9v29.94c0,0.21,0.17,0.37,0.37,0.37h1.12c0.21,0,0.37-0.17,0.37-0.37V32.72L49.04,27.9z"/>
		</g>
	</g>
</g>
</svg>
