<?xml version="1.0" encoding="utf-8"?>
<!-- Generator: Adobe Illustrator 26.5.0, SVG Export Plug-In . SVG Version: 6.00 Build 0)  -->
<svg version="1.1" id="Layer_1" xmlns="http://www.w3.org/2000/svg" xmlns:xlink="http://www.w3.org/1999/xlink" x="0px" y="0px"
	 viewBox="0 0 64 64" style="enable-background:new 0 0 64 64;" xml:space="preserve">
<style type="text/css">
	.st0{fill:#666666;}
	.st1{fill-rule:evenodd;clip-rule:evenodd;fill:#666666;}
</style>
<g>
	<path class="st0" d="M49.17,20.24l3.48-2.53c-0.26-0.32-0.52-0.63-0.8-0.94l-3.05,3.05C48.94,19.95,49.06,20.09,49.17,20.24z"/>
	<path class="st0" d="M51.27,23.26l3.83-1.95c-0.27-0.48-0.56-0.96-0.86-1.42l-3.48,2.53C50.94,22.69,51.11,22.97,51.27,23.26z"/>
	<path class="st0" d="M54.18,33.67h4.29c-0.02-1-0.09-2.01-0.23-3l-4.24,0.67C54.1,32.1,54.16,32.88,54.18,33.67z"/>
	<path class="st0" d="M53.81,30.13l4.24-0.67c-0.03-0.19-0.07-0.38-0.11-0.57c-0.13-0.65-0.29-1.3-0.47-1.94l-4.09,1.33
		C53.55,28.88,53.7,29.5,53.81,30.13z"/>
	<path class="st0" d="M52.81,26.53l4.09-1.33c-0.15-0.41-0.31-0.82-0.48-1.23c-0.1-0.24-0.2-0.47-0.31-0.7l-3.83,1.95
		C52.47,25.65,52.65,26.08,52.81,26.53z"/>
	<path class="st0" d="M53.98,37.16l4.24,0.67c0.15-1.05,0.23-2.11,0.25-3.18h-4.29C54.16,35.5,54.09,36.33,53.98,37.16z"/>
	<path class="st0" d="M53.23,40.57l4.08,1.33c0.25-0.81,0.46-1.64,0.63-2.47c0.05-0.25,0.1-0.5,0.14-0.75L53.85,38
		C53.69,38.88,53.48,39.73,53.23,40.57z"/>
	<path class="st0" d="M50.14,46.82l3.48,2.53c0.13-0.18,0.26-0.37,0.38-0.55c0.54-0.8,1.03-1.63,1.48-2.48l-3.83-1.95
		C51.21,45.22,50.7,46.03,50.14,46.82z"/>
	<path class="st0" d="M51.94,43.82l3.83,1.95c0.23-0.47,0.45-0.94,0.65-1.42c0.24-0.57,0.47-1.16,0.67-1.75L53,41.27
		C52.7,42.14,52.34,43,51.94,43.82z"/>
	<polygon class="st0" points="48.53,17.23 44.19,3.67 34.3,16.88 	"/>
	<path class="st0" d="M32.3,56.04c-5.48,0-10.5-2.03-14.34-5.37c-0.77-0.67-1.5-1.4-2.17-2.17c-0.12-0.14-0.24-0.28-0.36-0.42
		c-0.57-0.69-1.1-1.42-1.59-2.18c-0.18-0.28-0.35-0.56-0.51-0.84c-0.37-0.64-0.7-1.29-1-1.96c-0.19-0.43-0.37-0.86-0.54-1.31
		c-0.21-0.57-0.4-1.15-0.57-1.75c-0.17-0.61-0.31-1.23-0.43-1.86c-0.07-0.4-0.14-0.8-0.19-1.21c-0.1-0.76-0.16-1.54-0.18-2.33
		c0-0.16-0.01-0.33-0.01-0.49c0-0.16,0-0.33,0.01-0.49c0.02-0.85,0.09-1.69,0.2-2.51c0.04-0.28,0.08-0.57,0.13-0.85
		c0.16-0.87,0.36-1.73,0.62-2.57c0.07-0.23,0.15-0.47,0.23-0.7c0.3-0.88,0.66-1.73,1.06-2.55c0.09-0.18,0.18-0.37,0.28-0.55
		c0.45-0.85,0.96-1.67,1.51-2.45c0.09-0.13,0.19-0.27,0.29-0.4c3.99-5.35,10.37-8.83,17.55-8.83c2.49,0,4.88,0.42,7.11,1.18
		l3.32-3.32c-0.08-0.03-0.16-0.07-0.24-0.1c-1.58-0.67-3.23-1.18-4.92-1.53c-1.72-0.35-3.5-0.53-5.27-0.53
		c-1.77,0-3.55,0.18-5.27,0.53c-1.68,0.34-3.34,0.86-4.92,1.53c-1.55,0.66-3.05,1.47-4.45,2.41c-1.39,0.94-2.69,2.01-3.87,3.19
		c-0.91,0.91-1.76,1.89-2.52,2.92c-0.1,0.13-0.19,0.26-0.29,0.4c-0.13,0.18-0.26,0.37-0.38,0.55c-0.54,0.8-1.03,1.63-1.48,2.48
		c-0.1,0.18-0.19,0.36-0.28,0.55c-0.23,0.47-0.45,0.94-0.65,1.42c-0.24,0.57-0.47,1.16-0.67,1.75c-0.08,0.23-0.15,0.47-0.23,0.7
		c-0.25,0.81-0.46,1.64-0.63,2.47c-0.05,0.25-0.1,0.5-0.14,0.75c-0.05,0.28-0.09,0.56-0.13,0.85c-0.15,1.05-0.23,2.11-0.25,3.18
		c0,0.16,0,0.33,0,0.49s0,0.33,0,0.49c0.02,1,0.09,2.01,0.23,3c0.05,0.41,0.12,0.81,0.19,1.21c0.03,0.19,0.07,0.38,0.11,0.57
		c0.13,0.65,0.29,1.3,0.47,1.94c0.17,0.59,0.36,1.17,0.57,1.75c0.15,0.41,0.31,0.82,0.48,1.23c0.1,0.24,0.2,0.47,0.31,0.7
		c0.31,0.67,0.64,1.32,1,1.96c0.27,0.48,0.56,0.96,0.86,1.42c0.08,0.12,0.16,0.24,0.24,0.36c0.42,0.62,0.87,1.23,1.35,1.82
		c0.26,0.32,0.52,0.63,0.8,0.94c0.34,0.38,0.69,0.75,1.05,1.11c0.36,0.36,0.73,0.71,1.11,1.05c0.87,0.77,1.79,1.49,2.76,2.14
		c1.4,0.95,2.9,1.76,4.45,2.41c1.58,0.67,3.23,1.18,4.92,1.53c1.72,0.35,3.5,0.53,5.27,0.53c1.77,0,3.55-0.18,5.27-0.53
		c1.68-0.34,3.34-0.86,4.92-1.53c1.55-0.66,3.05-1.47,4.45-2.41c1.39-0.94,2.69-2.01,3.87-3.19c0.91-0.91,1.76-1.89,2.52-2.92
		l-3.48-2.53C45.86,52.57,39.48,56.04,32.3,56.04z"/>
	<g>
		<path class="st0" d="M18.26,38.42v-0.36c0-3.32,1.48-5.61,4.83-8.01c2.38-1.71,3.05-2.27,3.05-3.57c0-1.26-0.57-1.92-1.71-1.92
			c-1.39,0-1.84,0.91-2,2.28h-4.31c0.2-2.74,1.87-5.56,6.43-5.56c4.64,0,6.22,2.59,6.22,5.25c0,2.34-0.97,3.58-4.08,5.66
			c-1.85,1.25-2.63,2.07-2.92,2.69h7.55l-0.55,3.56H18.26z"/>
		<path class="st0" d="M40.24,38.42v-3.59h-7.53v-3.53l6.57-9.72h5.23v9.81h1.96l-0.38,3.44h-1.58v3.59H40.24z M40.24,29.07
			c0-1.72,0.01-2.69,0.08-3.77c-0.61,1.36-2.29,4-3.66,6.09h3.58V29.07z"/>
	</g>
	<g>
		<path class="st0" d="M18.12,40.78h1.49v1.79h1.9v-1.79H23v4.92h-1.49v-2.03h-1.9v2.03h-1.49V40.78z"/>
		<path class="st0" d="M29.46,43.23c0,1.38-0.91,2.58-2.81,2.58c-1.74,0-2.71-1.14-2.71-2.58c0-1.35,0.97-2.56,2.78-2.56
			C28.49,40.68,29.46,41.86,29.46,43.23z M25.51,43.22c0,0.87,0.38,1.52,1.22,1.52c0.87,0,1.16-0.76,1.16-1.5
			c0-0.85-0.33-1.51-1.2-1.51C25.85,41.74,25.51,42.42,25.51,43.22z"/>
		<path class="st0" d="M31.79,40.78v2.82c0,0.86,0.42,1.11,0.97,1.11c0.57,0,0.9-0.27,0.9-1.11v-2.82h1.49v2.85
			c0,1.45-0.81,2.19-2.43,2.19c-1.56,0-2.42-0.69-2.42-2.18v-2.85H31.79z"/>
		<path class="st0" d="M37.75,43.88v1.82h-1.47v-4.92h2.89c1.2,0,1.84,0.59,1.84,1.42c0,0.64-0.37,1.01-0.85,1.17
			c0.23,0.1,0.72,0.32,0.72,1.17v0.26c0,0.3,0,0.66,0.07,0.9h-1.5c-0.08-0.21-0.1-0.5-0.1-1.03v-0.16c0-0.45-0.15-0.64-0.8-0.64
			H37.75z M37.75,42.88h1.05c0.47,0,0.71-0.17,0.71-0.54c0-0.34-0.23-0.53-0.71-0.53h-1.05V42.88z"/>
		<path class="st0" d="M43.06,44.23c0.11,0.35,0.39,0.6,1.09,0.6c0.62,0,0.81-0.18,0.81-0.44c0-0.28-0.18-0.44-1.13-0.6
			c-1.8-0.31-2.07-0.92-2.07-1.57c0-0.99,0.94-1.53,2.22-1.53c1.66,0,2.25,0.8,2.31,1.48h-1.46c-0.06-0.22-0.2-0.49-0.87-0.49
			c-0.47,0-0.69,0.15-0.69,0.4c0,0.24,0.2,0.35,1.01,0.5c1.87,0.34,2.21,0.91,2.21,1.65c0,0.91-0.75,1.6-2.43,1.6
			c-1.62,0-2.34-0.7-2.49-1.59H43.06z"/>
	</g>
	<path class="st0" d="M5.53,26.53c0.43-1.82,1.04-3.61,1.82-5.32c0.78-1.71,1.73-3.35,2.84-4.89c1.11-1.53,2.37-2.96,3.76-4.26
		c1.39-1.3,2.92-2.46,4.54-3.46c1.63-1,3.36-1.85,5.16-2.52c1.8-0.67,3.67-1.17,5.58-1.48c1.91-0.31,3.85-0.43,5.79-0.35
		c1.94,0.07,4.66,0.5,6.55,0.95l-1.52,2.17c-1.72-0.51-3.38-0.82-5.18-0.98c-1.79-0.17-3.61-0.16-5.41,0.04
		c-1.8,0.19-3.59,0.56-5.33,1.1c-1.74,0.54-3.43,1.26-5.04,2.13c-1.61,0.88-3.14,1.91-4.55,3.09c-1.42,1.18-2.72,2.5-3.88,3.94
		c-1.16,1.44-2.19,3-3.05,4.65C6.76,22.99,6.06,24.73,5.53,26.53z"/>
</g>
</svg>
