<?xml version="1.0" encoding="utf-8"?>
<!-- Generator: Adobe Illustrator 26.5.0, SVG Export Plug-In . SVG Version: 6.00 Build 0)  -->
<svg version="1.1" id="Layer_1" xmlns="http://www.w3.org/2000/svg" xmlns:xlink="http://www.w3.org/1999/xlink" x="0px" y="0px"
	 viewBox="0 0 64 64" style="enable-background:new 0 0 64 64;" xml:space="preserve">
<style type="text/css">
	.st0{fill:#666666;}
	.st1{fill-rule:evenodd;clip-rule:evenodd;fill:#666666;}
</style>
<g>
	<g>
		<path class="st1" d="M17.62,51.53h28.76l7.21-33.87H10.41L17.62,51.53L17.62,51.53z M17.78,53.26v7.53h28.43v-7.53H17.78
			L17.78,53.26z M16.92,62.51c-0.48,0-0.86-0.39-0.86-0.86v-9.17l-7.51-35.3c-0.16-0.73,0.11-1.24,0.9-1.24h45.11
			c0.79,0,1.06,0.5,0.9,1.24l-7.51,35.3v9.17c0,0.48-0.39,0.86-0.86,0.86H16.92z"/>
		<polygon class="st1" points="19.02,49.8 44.98,49.8 49.77,27.33 14.23,27.33 		"/>
	</g>
	<g>
		<path class="st1" d="M31.14,6.64c0,0.48,0.39,0.86,0.86,0.86c0.48,0,0.86-0.39,0.86-0.86V2.35c0-0.48-0.39-0.86-0.86-0.86
			c-0.48,0-0.86,0.39-0.86,0.86V6.64z"/>
		<g>
			<path class="st1" d="M21.87,9.48c0.34,0.34,0.88,0.34,1.22,0c0.34-0.34,0.34-0.88,0-1.22l-3.03-3.03c-0.34-0.34-0.88-0.34-1.22,0
				c-0.34,0.34-0.34,0.88,0,1.22L21.87,9.48z"/>
			<path class="st1" d="M42.13,9.48c-0.34,0.34-0.88,0.34-1.22,0c-0.34-0.34-0.34-0.88,0-1.22l3.03-3.03c0.34-0.34,0.88-0.34,1.22,0
				c0.34,0.34,0.34,0.88,0,1.22L42.13,9.48z"/>
		</g>
	</g>
</g>
</svg>
