<?xml version="1.0" encoding="utf-8"?>
<!-- Generator: Adobe Illustrator 26.5.0, SVG Export Plug-In . SVG Version: 6.00 Build 0)  -->
<svg version="1.1" id="Layer_1" xmlns="http://www.w3.org/2000/svg" xmlns:xlink="http://www.w3.org/1999/xlink" x="0px" y="0px"
	 viewBox="0 0 64 64" style="enable-background:new 0 0 64 64;" xml:space="preserve">
<style type="text/css">
	.st0{fill:#666666;}
	.st1{fill-rule:evenodd;clip-rule:evenodd;fill:#666666;}
</style>
<g>
	<path class="st0" d="M13.17,17.25c-0.41-0.48-0.07-1.22,0.56-1.22h5.99c0-4.07-3.3-7.37-7.37-7.37s-7.37,3.3-7.37,7.37
		s3.3,7.37,7.37,7.37c1.78,0,3.42-0.63,4.69-1.69L13.17,17.25z"/>
	<path class="st0" d="M40.52,59.31l-5.7-2.14c-0.96-0.36-1.59-1.28-1.59-2.3V38.44c0-1.77,0.64-3.49,1.8-4.83L49.2,17.26H32H14.8
		l14.17,16.35c1.16,1.34,1.8,3.05,1.8,4.83v16.43c0,1.02-0.64,1.94-1.59,2.3l-5.7,2.14c-0.51,0.19-0.37,0.95,0.17,0.95H32h8.35
		C40.89,60.26,41.03,59.5,40.52,59.31z M25.5,25.86l-5.32-6.14h23.64l-5.32,6.14H25.5z"/>
	<path class="st0" d="M34.18,29.08c-0.15,0-0.3-0.04-0.44-0.11c-0.45-0.24-0.61-0.8-0.37-1.25L44.68,6.8
		c0.52-0.96,1.48-1.62,2.57-1.75L58,3.75c0.5-0.05,0.96,0.3,1.02,0.8c0.06,0.51-0.3,0.96-0.8,1.03l-10.75,1.3
		c-0.49,0.06-0.93,0.36-1.17,0.79L35,28.6C34.83,28.91,34.51,29.08,34.18,29.08z"/>
</g>
</svg>
