<?xml version="1.0" encoding="utf-8"?>
<!-- Generator: Adobe Illustrator 26.5.0, SVG Export Plug-In . SVG Version: 6.00 Build 0)  -->
<svg version="1.1" id="Layer_1" xmlns="http://www.w3.org/2000/svg" xmlns:xlink="http://www.w3.org/1999/xlink" x="0px" y="0px"
	 viewBox="0 0 64 64" style="enable-background:new 0 0 64 64;" xml:space="preserve">
<style type="text/css">
	.st0{fill:#666666;}
	.st1{fill-rule:evenodd;clip-rule:evenodd;fill:#666666;}
</style>
<g>
	<path class="st0" d="M21.27,47.25c0,0-0.83,1.76-2.42,1.1c-1.58-0.66-6.1,6.11-8.2,9.73c-2.1,3.62-3.56,4.96-6.14,2.49
		c-2.58-2.47-1.31-3.98,2.22-6.24c3.53-2.26,10.1-7.06,9.37-8.61c-0.73-1.55,0.99-2.46,0.99-2.46L21.27,47.25z"/>
	<path class="st0" d="M9.1,55.82c0.08,0.11,0.16,0.21,0.25,0.31c0.02,0.03,0.05,0.05,0.07,0.08c0.01,0.01,0.01,0.01,0.01,0.01
		c0.03,0.03,0.07,0.06,0.1,0.09c0.05,0.05,0.1,0.09,0.15,0.13c0.02,0.02,0.04,0.03,0.07,0.05c0,0,0.01,0.01,0.01,0.01L60.24,4.15
		l0.62-1.97l-2.01,0.76L8.55,55.09C8.74,55.33,8.91,55.57,9.1,55.82z"/>
	<path class="st0" d="M21.04,37.9c-0.43,2.74,1.44,5.31,4.18,5.75c2.74,0.43,5.31-1.44,5.75-4.18c0.43-2.74-1.44-5.31-4.18-5.75
		C24.05,33.29,21.48,35.16,21.04,37.9z"/>
	<path class="st0" d="M46.55,11.05c-0.43,2.74,1.44,5.31,4.18,5.75s5.31-1.44,5.75-4.18c0.43-2.74-1.44-5.31-4.18-5.75
		S46.98,8.31,46.55,11.05z"/>
	<ellipse transform="matrix(0.144 -0.9896 0.9896 0.144 4.1564 59.6977)" class="st0" cx="36.59" cy="27.45" rx="5.02" ry="5.02"/>
	<path class="st0" d="M33.53,37.95c-1.56-0.73-4.6-2.52-6.97-6.15c-0.33-0.51-0.25-1.32,0.16-1.78l2.2-2.5
		c0.4-0.46,0.97-0.4,1.31,0.11c2.36,3.63,5.41,5.42,6.97,6.15c0.56,0.26,0.7,0.79,0.3,1.25l-2.2,2.5
		C34.89,37.99,34.09,38.2,33.53,37.95z"/>
	<path class="st0" d="M48.01,21.89c-1.56-0.73-4.6-2.52-6.97-6.15c-0.33-0.51-0.25-1.32,0.15-1.78l2.2-2.5
		c0.4-0.46,0.97-0.4,1.31,0.11c2.36,3.63,5.41,5.42,6.97,6.15c0.56,0.26,0.7,0.79,0.29,1.25l-2.19,2.5
		C49.36,21.94,48.56,22.15,48.01,21.89z"/>
	<g>
		<path class="st0" d="M39.23,20.02c0.72,0.51,1.45,1.29,2.06,2.45c1.64,3.13,4.38,3.22,4.5,3.23l-0.02,1.48
			c-0.15,0-3.72-0.08-5.79-4.02c-1.61-3.06-4.09-2.59-4.12-2.59l-0.3-1.45C35.67,19.1,37.45,18.76,39.23,20.02z"/>
	</g>
	<g>
		<path class="st0" d="M41.4,17.82c0.72,0.51,1.45,1.29,2.06,2.45c1.64,3.13,4.38,3.22,4.5,3.23l-0.02,1.48
			c-0.15,0-3.72-0.08-5.79-4.02c-1.61-3.06-4.1-2.59-4.12-2.59l-0.3-1.45C37.84,16.9,39.62,16.56,41.4,17.82z"/>
	</g>
</g>
</svg>
