<?xml version="1.0" encoding="utf-8"?>
<!-- Generator: Adobe Illustrator 26.5.0, SVG Export Plug-In . SVG Version: 6.00 Build 0)  -->
<svg version="1.1" id="Layer_1" xmlns="http://www.w3.org/2000/svg" xmlns:xlink="http://www.w3.org/1999/xlink" x="0px" y="0px"
	 viewBox="0 0 64 64" style="enable-background:new 0 0 64 64;" xml:space="preserve">
<style type="text/css">
	.st0{fill:#666666;}
	.st1{fill-rule:evenodd;clip-rule:evenodd;fill:#666666;}
</style>
<g>
	<path class="st0" d="M10.19,20.14c-0.01,0.67-0.07,1.33-0.33,1.95c-0.28,0.65-0.78,1.19-1.19,1.76c-1.23,1.75-1.35,3.74-1.46,5.8
		C7.1,31.87,7.16,34.1,7.3,36.32c0.29,4.4,0.9,8.77,1.2,13.17c0.06,0.87,0.14,1.8-0.17,2.61c-0.34,0.88-1.05,1.5-2.01,1.5H6.24
		c-0.96,0-1.67-0.62-2.01-1.5C3.91,51.29,4,50.36,4.06,49.49c0.3-4.4,0.92-8.77,1.2-13.17c0.14-2.22,0.2-4.44,0.09-6.66
		c-0.1-2.07-0.22-4.05-1.46-5.8c-0.41-0.58-0.91-1.1-1.19-1.75c-0.26-0.61-0.32-1.31-0.33-1.98c-0.07-3.28,0.3-6.4,0.64-9.8
		c0.1,0,0.54,0,0.54,0s0.1,7.53,0.1,8.36h1.02l0.26-8.36h0.61l0.22,8.36h0.51h0.51l0.22-8.36h0.61l0.26,8.36H8.9
		c0-0.83,0.1-8.36,0.1-8.36s0.44,0,0.54,0C9.89,13.74,10.26,16.86,10.19,20.14z"/>
	<path class="st0" d="M61.48,51.93c-0.22,0.78-0.78,1.51-1.57,1.69c-1.04,0.24-2.09-0.59-2.47-1.58c-0.39-0.99-0.29-2.1-0.18-3.17
		c0.29-2.81,0.57-5.62,0.86-8.43c0.22-2.19,0.45-4.38,0.48-6.58c0.01-0.89-0.01-1.82-0.41-2.62c-0.38-0.75-1.05-1.32-1.49-2.03
		c-0.86-1.38-0.79-3.12-0.69-4.75c0.12-1.92,0.23-3.83,0.35-5.75c0.07-1.2,0.09-2.4,0.24-3.6c0.12-0.98,0.36-1.96,0.85-2.82
		c0.38-0.67,0.92-1.26,1.6-1.64c0.55-0.31,1.43-0.52,1.84,0.13c0.16,0.24,0.16,0.55,0.17,0.84c0.01,0.85,0.02,1.7,0.03,2.55
		c0.04,2.93,0.06,5.86,0.08,8.79c0.01,1.47,0.01,2.93,0.01,4.4c0,1.38-0.07,2.76-0.14,4.14c-0.05,1.05-0.1,2.1-0.12,3.15
		c-0.06,4.24,0.11,8.48,0.47,12.71c0.06,0.71,0.19,1.44,0.19,2.15C61.63,50.33,61.7,51.16,61.48,51.93z"/>
	<g>
		<path class="st0" d="M32.87,10.37c-11.94,0-21.63,9.68-21.63,21.63s9.68,21.63,21.63,21.63S54.5,43.94,54.5,32
			S44.82,10.37,32.87,10.37z M32.87,51.33c-10.66,0-19.33-8.67-19.33-19.33s8.67-19.33,19.33-19.33S52.2,21.34,52.2,32
			S43.53,51.33,32.87,51.33z"/>
	</g>
</g>
<g>
	<path class="st0" d="M34.89,21.97c0,0.05,0,0.11,0.01,0.16c0.02,0.09,0.05,0.16,0.12,0.22c0.03,0.02,0.06,0.03,0.09,0.04
		c0.02,0.01,0.05,0.02,0.07,0.02c0.01,0.01,0.03,0.01,0.04,0.02c0.17,0.14,0.04,0.32-0.03,0.5c0,0-0.01,0.01-0.01,0.01
		c-0.02,0.03-0.02,0.07-0.02,0.11c-0.01,0.05,0,0.11,0.03,0.16c0.16,0.25,0.57,0.18,0.81,0.19c0.17,0.01,0.36,0.02,0.42-0.19
		c0.09-0.3-0.24-0.45-0.41-0.61c-0.29-0.27-0.09-0.73-0.39-0.96c-0.22-0.17-0.49-0.06-0.68,0.09c0,0-0.01,0-0.01,0.01
		c0,0-0.01,0.01-0.01,0.01c0,0,0,0.01,0,0.01c-0.01,0.01-0.01,0.02-0.02,0.03c-0.02,0.03-0.02,0.07-0.02,0.11
		C34.88,21.92,34.88,21.95,34.89,21.97z"/>
	<path class="st0" d="M34.46,23.04c0.1,0.01,0.35,0.01,0.43-0.07c0.03-0.03,0.02-0.06,0.03-0.09c0.02-0.09,0.02-0.22,0.01-0.31
		c-0.01-0.04-0.02-0.08-0.05-0.11c-0.03-0.03-0.06-0.05-0.09-0.08c-0.05-0.05-0.03-0.05-0.08-0.13c0.01-0.01,0.01-0.01,0-0.02
		c-0.02-0.03-0.04-0.05-0.06-0.05c-0.02-0.01-0.04-0.02-0.07,0.02c0,0,0,0.01,0,0.01c0,0-0.01,0.01-0.01,0.01
		c-0.13,0.09-0.3,0.21-0.4,0.34C34,22.78,34.22,23.02,34.46,23.04z"/>
	<path class="st0" d="M45.89,37.06c-0.04-0.1-0.11-0.16-0.23-0.13c0,0-0.09,0.04-0.1,0.05c-0.01,0-0.03,0.03-0.03,0.04
		c-0.24,0.29-0.71,0.32-0.87,0.68c-0.06,0.13-0.04,0.3-0.05,0.45c0.01,0.12-0.09,0.4-0.11,0.48c-0.05,0.12-0.09,0.25-0.11,0.38
		c-0.03,0.26,0.07,0.77,0.33,0.87c0.02,0.02,0.04,0.03,0.06,0.04c0.03,0.01,0.07-0.01,0.1-0.02c0.03-0.01,0.05-0.02,0.08-0.03
		c0.24-0.11,0.4-0.4,0.45-0.65c0.06-0.25,0.02-0.51,0.09-0.76c0.08-0.29,0.26-0.53,0.37-0.8c0.02-0.04,0.03-0.1,0.04-0.17
		c0.03-0.09,0.04-0.19,0.02-0.29C45.93,37.16,45.91,37.11,45.89,37.06z"/>
	<path class="st0" d="M20.73,21.13c0.01-0.01,0.01-0.02,0-0.03c-0.2-0.11-0.45-0.13-0.65-0.02c-0.13,0.07-0.21,0.23-0.03,0.3
		c0.14,0.05,0.28-0.05,0.43-0.02c0.09,0.02,0.16,0.09,0.26,0.03C20.85,21.33,20.82,21.19,20.73,21.13z"/>
	<path class="st0" d="M30.84,19.32c-0.16-0.06-0.31,0.09-0.43,0.17c-0.31,0.21-0.63,0.39-1.01,0.38c-0.02,0-0.02,0.02-0.01,0.03
		c-0.12,0.09,0.04,0.39,0.13,0.46c0.09,0.08,0.2,0.05,0.3,0.01c0.3-0.13,0.6-0.36,0.86-0.55C30.8,19.72,31.16,19.44,30.84,19.32z"/>
	<path class="st0" d="M37.5,17.44c-0.02,0.13,0.2,0.19,0.28,0.23c0.21,0.11,0.41,0.27,0.66,0.17c0.28-0.11,0.05-0.08,0.54-0.06
		c0.12,0.01,0.08,0.07,0.21,0.01c0.03-0.01,0.05-0.07,0.07-0.09c0.02-0.02,0.19-0.28,0.2-0.36c0.02-0.11-0.01-0.17-0.12-0.21
		c-0.12-0.05-0.35,0.01-0.47,0.01c-0.18,0.01-0.36,0.01-0.53,0.03c-0.26,0.02-0.51,0.06-0.74,0.18c-0.03,0-0.06,0.02-0.08,0.04
		c0,0-0.01,0-0.01,0.01C37.49,17.41,37.49,17.42,37.5,17.44C37.5,17.43,37.5,17.43,37.5,17.44z"/>
	<path class="st0" d="M20.76,31.53c-0.04-0.01-0.09,0-0.15,0.01c-0.03,0-0.07,0.01-0.1,0.03c-0.04,0.01-0.08,0.02-0.12,0.03
		c0,0,0,0-0.01,0c-0.03,0-0.1,0.01-0.18,0.01c-0.01,0-0.02-0.01-0.03-0.01c-0.01-0.01-0.03,0-0.03,0.02
		c-0.25,0.02-0.57,0.07-0.48,0.28c0.05,0.12,0.18,0.12,0.29,0.12c0.16,0,0.31-0.03,0.47-0.01c0.15,0.02,0.27,0.09,0.42,0.13
		c0.26,0.07,0.4-0.13,0.26-0.37C21.03,31.65,20.89,31.56,20.76,31.53z"/>
	<path class="st0" d="M48.83,25.24c-0.44-1.03-0.97-2.02-1.6-2.95c-0.62-0.92-1.33-1.78-2.12-2.57c-0.79-0.79-1.65-1.5-2.57-2.12
		c-0.93-0.63-1.92-1.17-2.95-1.6c-2.14-0.91-4.42-1.36-6.76-1.36c-2.34,0-4.62,0.46-6.76,1.36c-1.03,0.44-2.02,0.97-2.95,1.6
		c-0.92,0.62-1.78,1.33-2.57,2.12c-0.79,0.79-1.5,1.65-2.12,2.57c-0.63,0.93-1.17,1.92-1.6,2.95c-0.91,2.14-1.36,4.42-1.36,6.76
		s0.46,4.62,1.36,6.76c0.44,1.03,0.97,2.02,1.6,2.95c0.62,0.92,1.33,1.78,2.12,2.57c0.79,0.79,1.65,1.5,2.57,2.12
		c0.93,0.63,1.92,1.17,2.95,1.6c2.14,0.91,4.42,1.36,6.76,1.36c2.34,0,4.62-0.46,6.76-1.36c1.03-0.44,2.02-0.97,2.95-1.6
		c0.92-0.62,1.78-1.33,2.57-2.12c0.79-0.79,1.5-1.65,2.12-2.57c0.63-0.93,1.17-1.92,1.6-2.95c0.91-2.14,1.36-4.42,1.36-6.76
		S49.74,27.38,48.83,25.24z M48.36,38.56c-0.85,2.01-2.06,3.81-3.61,5.36c-1.55,1.55-3.35,2.76-5.36,3.61
		c-2.08,0.88-4.28,1.32-6.56,1.32s-4.48-0.45-6.56-1.32c-2.01-0.85-3.81-2.06-5.36-3.61c-1.55-1.55-2.76-3.35-3.61-5.36
		c-0.77-1.83-1.21-3.76-1.3-5.75c0.04,0.02,0.07,0.04,0.11,0.06c0.01,0.01,0.03,0,0.03-0.02c0,0,0-0.01,0-0.03
		c0.02-0.06,0-0.13-0.04-0.19c-0.01-0.04-0.01-0.06-0.02-0.06c0.09-0.39,0.22-0.17,0.29,0.04c0.04,0.11,0.08,0.34,0.09,0.42
		c0.04,0.2,0.03,0.4,0.25,0.48c0.3,0.11,0.75-0.13,1.06-0.11c0.37,0.02,0.59,0.18,0.92,0.25c0.23,0.05,0.43,0.02,0.67,0.08
		c0.45,0.1,0.25,0.09,0.48,0.31c0.06,0.05,0.11,0.11,0.19,0.12c0.02,0,0.04,0.01,0.05,0.01c0.04,0.03,0.09,0.03,0.12,0.05
		c0.16,0.15,0.03,0,0.06,0.02c0.11,0.06,0.84,0.56,0.85,0.74c0,0.01,0,0.03-0.01,0.05c-0.02,0.03-0.04,0.06-0.06,0.09
		c-0.02,0.04-0.04,0.07-0.05,0.11c-0.02,0.04-0.04,0.08-0.05,0.12c-0.03,0.14-0.03,0.27-0.01,0.41c0.13,0.83,0.93,1.25,1.4,1.87
		c0.18,0.23,0.25,0.52,0.52,0.66c0.21,0.11,0.47,0.09,0.67,0.23c0.37,0.26,0.48,0.63,0.58,1.03c0.1,0.38,0.29,0.7,0.49,1.04
		c0.34,0.57,0.42,1.14,0.57,1.77c0.21,0.9,0.81,1.62,1.33,2.37c0.36,0.52,0.79,1.51,1.44,1.74c0.14,0.05,0.28,0.05,0.43,0.07
		c0.26,0.04,0.29,0.03,0.64,0.15c0.01,0,0.12,0.09,0.13,0.09c0.13,0,0.15,0.08,0.24-0.03c0.08-0.1,0.01-0.25-0.06-0.33
		c-0.06-0.08-0.2-0.1-0.27-0.15c-0.32-0.22-0.38-0.45-0.46-0.81c-0.02-0.11-0.05-0.2-0.08-0.28c-0.03-0.12-0.08-0.23-0.15-0.32
		c-0.01-0.02-0.03-0.05-0.04-0.07c-0.1-0.18-0.11-0.37-0.15-0.56c0.01-0.06,0-0.12-0.03-0.18c-0.01-0.03-0.03-0.05-0.05-0.07
		c-0.01-0.01-0.01-0.03-0.02-0.04c-0.11-0.21-0.5-0.39-0.41-0.72c0.03-0.12,0.24-0.4,0.37-0.47c0.04-0.02,0.1,0.02,0.14,0
		c0.02-0.01,0.03-0.02,0.05-0.02c0.02,0,0.03-0.01,0.05-0.01c0.04-0.01,0.06-0.02,0.1-0.09c0.01-0.02-0.03-0.16-0.03-0.18
		c-0.01-0.07-0.02-0.15-0.03-0.22c-0.09-0.2-0.06-0.26,0.09-0.2c0,0,0.01,0,0.01,0c0.01-0.01,0.01-0.01,0.02-0.02
		c0.09-0.02,0.15-0.1,0.17-0.19c0.01-0.03,0.02-0.06,0.03-0.1c0.05-0.2-0.02-0.45,0.05-0.67c0.03-0.09,0.12-0.18,0.16-0.26
		c0.04-0.09,0.1-0.19,0.1-0.3c0-0.06-0.01-0.12-0.04-0.18c-0.01-0.02-0.01-0.04-0.02-0.05c-0.09-0.18-0.23-0.33-0.18-0.53
		c0.14-0.48,0.64-0.49,1.01-0.64c0.03-0.01,0.07-0.02,0.1-0.03c0.07-0.03,0.13-0.08,0.17-0.13c0.1-0.1,0.16-0.23,0.16-0.43
		c0-0.01,0-0.02,0-0.04c-0.01-0.06-0.04-0.27-0.08-0.38c-0.04-0.11-0.17-0.31-0.23-0.44c-0.01-0.02-0.01-0.03-0.02-0.05
		c-0.11-0.29-0.19-0.52-0.09-0.82c0.05-0.17,0.14-0.28,0.19-0.44c0.04-0.1,0.09-0.18,0.1-0.29c0.03-0.55-0.72-0.99-1.17-1.12
		c-0.46-0.14-0.97-0.16-1.45-0.22c-0.08-0.01-0.19-0.01-0.31-0.02c-0.23-0.03-0.46-0.06-0.68-0.09c-0.02,0-0.04-0.01-0.06-0.01
		c-0.02-0.01-0.05-0.02-0.07-0.03c-0.19-0.11-0.27-0.35-0.42-0.5c-0.22-0.23-0.47-0.31-0.78-0.35c-0.16-0.02-0.32-0.01-0.47-0.02
		c-0.16-0.01-0.34-0.02-0.5-0.06c-0.32-0.09-0.37-0.31-0.63-0.49c-0.02-0.01-0.03-0.02-0.04-0.03c-0.03-0.04-0.07-0.07-0.11-0.09
		c-0.01,0-0.02-0.01-0.03-0.01c0,0-0.01,0-0.01,0c-0.01,0-0.01,0-0.02,0c-0.03-0.01-0.08-0.01-0.13,0
		c-0.13,0.03-0.18,0.16-0.29,0.21c-0.37,0.19-0.74,0.12-1.12,0.11c-0.21,0-0.33,0.06-0.48,0.19c-0.17,0.15-0.19,0.4-0.56,0.39
		c-0.02,0-0.05,0-0.07,0c-0.07-0.02-0.14-0.03-0.2-0.03c0,0-0.01,0-0.01,0c0,0-0.01,0-0.01,0c-0.03,0-0.06,0.01-0.09,0.03
		c-0.02-0.26-0.19-0.71-0.26-0.84c-0.03-0.05-0.05-0.08-0.07-0.11c-0.02-0.03-0.05-0.06-0.08-0.07c-0.04-0.02-0.08-0.02-0.13-0.01
		c-0.01,0-0.02-0.01-0.03-0.01c-0.23-0.13-0.32-0.32-0.45-0.49c-0.04-0.05-0.05-0.16-0.14-0.18c-0.11-0.03-0.11-0.01-0.15,0.03
		c-0.01,0-0.01,0.01-0.02,0.02c-0.01,0.01-0.03,0.02-0.05,0.04c0.01,0-0.19,0.21-0.36,0.4c-0.15,0.1-0.31,0.18-0.42,0.15
		c-0.5-0.15-0.51-0.62-0.44-1.04c0.1-0.61,0.45-0.79,0.98-0.95c0.56-0.17,0.73-0.15,1.13,0.35c0.02,0.02,0.04,0.04,0.06,0.07
		c0.03,0.05,0.06,0.09,0.11,0.12c0.02,0.01,0.03,0.02,0.05,0.02c0.09,0.06,0.19,0.06,0.27-0.1c0.06-0.13-0.13-0.39-0.17-0.51
		c-0.04-0.12-0.13-0.35-0.1-0.49c0.05-0.25,0.36-0.45,0.49-0.62c0.01-0.01,0.02-0.03,0.03-0.04c0.03-0.02,0.05-0.04,0.07-0.07
		c0.05-0.07,0.06-0.15,0.07-0.23c0.04-0.16,0.04-0.33,0.1-0.56c0.22-0.91,0.81-1.17,1.58-1.52c0.2-0.09,0.87-0.27,0.91-0.54
		c0.02-0.12-0.01-0.16-0.06-0.18c-0.03-0.03-0.08-0.04-0.12-0.04c-0.01,0-0.02-0.01-0.03-0.01c-0.1-0.04-0.06,0.04-0.15,0.02
		c-0.27,0.1-0.14-0.05,0.39-0.44c-0.01,0.04-0.03,0.09-0.04,0.13c0.01,0.01,0.01,0.02,0.01,0.03c-0.01,0.03-0.01,0.07-0.01,0.1
		c0,0.02,0.01,0.04,0.04,0.09c0.01,0.01,0.02,0.01,0.02,0.01c0.22-0.14,0.67-0.34,0.78-0.6c0.05-0.11,0.05-0.16,0.02-0.2
		c-0.01-0.02-0.02-0.04-0.04-0.06c-0.03-0.03-0.06-0.05-0.1-0.07c-0.01-0.01-0.01-0.02-0.02-0.03c-0.11-0.19-0.05-0.5-0.24-0.64
		c-0.07-0.05-0.18-0.01-0.24-0.05c-0.01-0.01-0.26-0.39-0.3-0.48c-0.02-0.05-0.02-0.15-0.04-0.21c-0.01-0.02-0.02-0.04-0.04-0.05
		c0,0-0.01,0-0.01-0.01c-0.04-0.04-0.08-0.06-0.17-0.05c-0.11,0-0.16,0.09-0.25,0.14c-0.23,0.12,0,0.16-0.39,0.16
		c-0.45,0-0.13,0-0.32-0.16c-0.02-0.01-0.03-0.03-0.04-0.04c-0.02-0.04-0.04-0.07-0.07-0.09c-0.04-0.06-0.09-0.1-0.21-0.08
		C21.36,23.89,21.3,24.4,21,24.5c-0.02,0.01-0.02,0.02,0,0.03c0.26,0.17,0.08,0.52-0.08,0.81c-0.04,0.06-0.08,0.13-0.11,0.2
		c0,0.01,0,0.02-0.01,0.02c-0.02,0.05-0.04,0.1-0.05,0.14c0-0.01-0.03,0.36-0.02,0.35c-0.19,0.04-0.39,0.07-0.58,0.11
		c0-0.05,0-0.09-0.01-0.14c-0.01,0-0.03-0.02-0.04-0.04c0,0,0-0.01-0.01-0.01c-0.01-0.02-0.03-0.05-0.04-0.06
		c-0.09-0.06-0.21,0.02-0.31,0c-0.18,0.05-0.33-0.03-0.43-0.23c-0.12-0.04-0.21-0.1-0.25-0.18c0.39-0.26,0.51-0.83,0.9-1.12
		c0.16-0.12,0.33-0.22,0.46-0.36c0.18-0.2,0.24-0.45,0.4-0.67c0.18-0.25,0.37-0.32,0.56-0.53c0.03-0.03,0.05-0.14,0.07-0.18
		c0.02-0.08,0.03-0.14,0.05-0.2l0.01-0.03l0.01-0.03c0.01-0.02,0.02-0.04,0.03-0.05c0.02-0.03,0.05-0.07,0.07-0.09
		c0.07-0.02,0.15,0.07,0.24,0.28c0.25,0.15,0.32,0.24,0.2,0.29c0,0.01-0.01,0.02-0.02,0.03c-0.09,0.04-0.17,0.08-0.23,0.14
		c0,0-0.01,0.01-0.01,0.01c-0.04,0.03-0.08,0.07-0.09,0.11c-0.05,0.16-0.02,0.16,0.05,0.29c0.01,0.01,0.02,0.01,0.02,0.01
		c0.33-0.15,1.25,0.32,1.5-0.16c0.02-0.04,0.02-0.08,0.04-0.12c0-0.05,0-0.11-0.01-0.16c0.04-0.23,0.14-0.38,0.31-0.45
		c0.01-0.01,0.02-0.03,0.03-0.04c0.02-0.01,0.04-0.03,0.06-0.05c0.02-0.02,0.03-0.04,0.04-0.06c0.02-0.03,0.03-0.07,0.03-0.13
		c0-0.14-0.1-0.24-0.2-0.32c-0.16-0.12-0.4-0.09-0.58-0.14c-0.6-0.16-0.91-0.56-0.33-1.23c0.02-0.02,0.04-0.05,0.06-0.07
		c0.1-0.07,0.18-0.16,0.27-0.24c0.28-0.27,0.55-0.54,0.83-0.82c0.21-0.02,0.33-0.02,0.38,0.02c0.05,0.04-0.02,0.14-0.05,0.18
		c-0.03,0.04-0.17,0.14-0.17,0.14C24.01,19.75,24,19.76,24,19.76c-0.04,0.05-0.1,0.09-0.13,0.15c-0.06,0.13-0.08,0.16-0.06,0.3
		c0,0.01,0.01,0.01,0.01,0.01c0.01,0,0.02,0,0.03,0c0.03,0.01,0.06,0.01,0.09,0c0.09-0.02,0.12-0.1,0.26-0.18
		c0.26-0.29,0.55-0.19,0.89,0.28c-0.02,0.05-0.04,0.1-0.04,0.16c-0.04-0.16,0.02,0.28,0.03,0.23c-0.02,0.3-0.07,0.61-0.11,0.91
		c-0.02,0.14-0.04,0.22-0.03,0.37c0.01,0.2,0.07,0.47,0.16,0.65c0.17,0.33,0.37,0.35,0.57,0.22c0.06-0.04,0.12-0.09,0.18-0.15
		c0.05-0.04,0.09-0.09,0.13-0.16c0,0,0.02-0.04,0.02-0.03c0,0,0.1-0.18,0.14-0.23c0.3-0.49,0.54-1.1,0.64-1.23
		c0.28-0.36,0.74-0.46,1.13-0.66c0.33-0.16,0.57-0.35,0.8-0.64c0.27-0.33,0.52-0.6,0.81-0.91c0.14-0.14,0.11-0.09,0.18-0.24
		c0.07-0.14,0.01-0.17-0.05-0.19c0-0.01-0.01-0.01-0.01-0.02c-0.02-0.02-0.06-0.04-0.08-0.07c0.01-0.06,0.09-0.17,0.3-0.39
		c0.01-0.01,0.02-0.02,0.03-0.03c0.03-0.01,0.06-0.03,0.09-0.04c0.03,0.01,0.04,0.04,0.14-0.09c0.09-0.13,0.03-0.19,0.08-0.32
		c0.14-0.4,0.18-0.45,0.43-0.67c0.19-0.17,0.33-0.28,0.42-0.52c0-0.01,0-0.02-0.01-0.02c-0.2-0.04-0.29-0.01-0.47,0.09
		c-0.09,0.07-0.17,0.13-0.26,0.2c-0.25,0.09-0.51,0.1-0.77,0.06c-0.14,0.01-0.25,0.01-0.4,0.04c-0.77,0.16-1.57,0.65-2.23,1.05
		c-0.4,0.24-0.8,0.55-1.25,0.68c-0.36,0.1-0.74-0.03-1.08,0.1c-0.04,0.02-0.09,0.04-0.14,0.07c-0.11-0.03-0.22,0.01-0.36,0.09
		c-0.52,0.32-0.95,0.77-1.49,1.07c-0.4,0.22-0.81,0.41-1.11,0.77c-0.28,0.34-0.67,0.87-0.79,1.29c0,0.01,0,0.01,0,0.02
		c0.1,0.22,0.11,0.43,0.02,0.63c-0.13,0.06-0.27,0.12-0.4,0.18c-0.01-0.07-0.1-0.25-0.08-0.24c-0.05-0.07-0.11-0.1-0.2-0.1
		c-0.38-0.02-0.34,0.47-0.34,0.7c0.02,0.47-0.19,0.88-0.61,1.02c-0.07,0.01-0.14,0.03-0.21,0.04c-0.03,0-0.06,0.01-0.09,0.01
		c-0.23,0.15-0.35,0.04-0.38-0.33c0.05-0.02,0.09-0.04,0.14-0.06c0.09-0.08,0.23-0.09,0.31-0.2c0.11-0.14,0.18-0.38,0-0.51
		c-0.1-0.07-0.17-0.02-0.25,0.02c0.06-0.1,0.12-0.19,0.19-0.29c0.03,0,0.07-0.01,0.13-0.02c0.06-0.01,0.05,0.01,0.12-0.02
		c0.1-0.05,0.19-0.2,0.27-0.28c0.06-0.06,0.17-0.15,0.19-0.24c0.02-0.09-0.04-0.16-0.12-0.19c-0.02-0.01-0.03-0.01-0.04-0.01
		c0.48-0.64,1.01-1.25,1.58-1.82c1.55-1.55,3.35-2.76,5.36-3.61c2.08-0.88,4.28-1.32,6.56-1.32s4.48,0.45,6.56,1.32
		c1.83,0.77,3.49,1.85,4.95,3.21c-0.16,0.01-0.32,0-0.48,0.02c-0.11,0.01-0.21,0.04-0.31,0.07c-0.06,0.02-0.12,0.04-0.18,0.06
		c-0.04,0.01-0.08,0.03-0.12,0.04c-0.31,0.11-0.09,0-0.31-0.15c-0.08-0.06-0.17-0.11-0.27-0.04c-0.09,0.06-0.05,0.12-0.09,0.18
		c-0.2,0.34-0.2,0.77-0.71,0.7c-0.07,0-0.13,0-0.2,0c0.06-0.08,0.12-0.17,0.18-0.25c0.03-0.01,0.17,0.03,0.19,0.01
		c0.01-0.01,0.02-0.02,0.04-0.03c0.06-0.03,0.1-0.08,0.12-0.15c0.05-0.1,0.04-0.21-0.05-0.34c-0.08-0.11-0.18-0.15-0.31-0.19
		c-0.25-0.07-0.53-0.01-0.78-0.06c-0.27-0.05-0.51-0.18-0.76-0.27c-0.44-0.16-0.91-0.24-1.3,0.05c-0.06,0.02-0.11,0.05-0.17,0.08
		c-0.19,0.09-0.36,0.22-0.5,0.37c-0.29,0.27-0.56,0.57-0.92,0.76c-0.06,0.03-0.12,0.07-0.17,0.11c-0.07,0.04-0.14,0.1-0.19,0.16
		c-0.16,0.17-0.25,0.39-0.1,0.64c0.09,0.15,0.21,0.21,0.38,0.24c0.45,0.08,0.73-0.12,1.1,0.31c0.01,0.02,0.03,0.03,0.04,0.05
		c0.06,0.13,0.12,0.24,0.25,0.22c0,0,0,0,0.01,0c0.07-0.01,0.14-0.08,0.28-0.24c0.07-0.09,0.32-0.31,0.28-0.45
		c-0.02-0.06-0.05-0.08-0.08-0.1c-0.02-0.02-0.05-0.03-0.09-0.04c-0.01-0.01-0.01-0.01-0.02-0.03c-0.08-0.17-0.01-0.5,0.15-0.71
		c0.06-0.05,0.12-0.1,0.17-0.16c0.01-0.01,0.03-0.02,0.05-0.02c0.02-0.02,0.04-0.04,0.05-0.06c0.11,0.08,0.21,0.16,0.32,0.24
		c0,0-0.12,0.04-0.12,0.04c-0.02,0.04-0.1,0.07-0.13,0.12c-0.11,0.16-0.09,0.29-0.02,0.41c0.04,0.09,0.1,0.16,0.19,0.2
		c0.01,0.01,0.03,0.02,0.04,0.03c0.07,0.05,0.59-0.11,0.26,0.33c-0.01,0.01-0.22,0.02-0.25,0.04c-0.09,0.06-0.11,0.1-0.15,0.2
		c-0.02,0.06,0,0.14-0.02,0.2c-0.03,0.09-0.35,0.49-0.48,0.51c-0.02,0-0.05,0-0.08,0c-0.06-0.02-0.12-0.04-0.18-0.06
		c-0.08-0.03-0.15-0.06-0.21-0.07c-0.26-0.04-0.26,0.02-0.49-0.19c-0.24-0.22-0.11-0.25-0.26-0.43c-0.14-0.16-0.29-0.08-0.39,0.08
		c-0.07,0.13-0.03,0.26-0.08,0.39c-0.07,0.19-0.18,0.25-0.38,0.35c-0.02,0.01-0.15-0.01-0.17,0c-0.21,0.14-0.3,0.4-0.51,0.55
		c-0.27,0.2-0.51,0.18-0.82,0.27c-0.04,0.01-0.14,0.02-0.18,0.04c-0.1,0.07-0.2,0.15-0.16,0.29c0,0,0,0.01,0,0.01c0,0,0,0.01,0,0.01
		c0,0,0,0.01,0,0.01c-0.07,0.07,0,0.08,0.1,0.09c0,0,0,0,0,0c0,0,0,0,0.01,0c0,0,0.01,0,0.01,0c0,0,0.01,0,0.01,0.01
		c0.17,0.07,0.11,0.19-0.17,0.36c-0.15,0.21-0.2,0.31-0.22,0.35c0,0-0.01,0-0.01-0.01c-0.01-0.03-0.03-0.07-0.13-0.08
		c-0.15-0.01-0.24-0.13-0.41-0.09c-0.14,0.04-0.21,0.14-0.25,0.27c-0.07,0.18-0.05,0.3-0.15,0.5c0.02-0.05-0.21,0.31-0.21,0.34
		c-0.01,0.03-0.01,0.05-0.01,0.08c-0.01,0.05,0,0.11,0.02,0.16c0.09,0.25,0.43,0.36,0.72,0.39c0.54,0.06,1.09-0.11,1.53-0.42
		c0.22-0.16,0.41-0.36,0.56-0.58c0.15-0.22,0.28-0.49,0.56-0.58c0.02-0.01,0.05-0.01,0.08-0.01c0.01,0,0.02,0,0.04,0
		c0.2,0.02,0.4,0.04,0.6,0.06c0.05,0.01,0.08,0.02,0.11,0.03c0.29,0.11,0.31,0.39,0.54,0.56c0.05,0.04,0.18,0.07,0.22,0.11
		c0.07,0.08,0.06,0.51-0.02,0.64c-0.01,0.02-0.14,0-0.14,0.02c0,0.01-0.01,0.03-0.01,0.04c-0.03,0.04-0.04,0.09-0.03,0.14
		c0,0.09,0.04,0.17,0.17,0.21c0.2,0.06,0.36-0.11,0.51-0.19c0.12-0.07,0.59-0.12,0.65-0.31c0.03-0.1,0.03-0.08-0.01-0.2
		c-0.04-0.09-0.16-0.16-0.23-0.21c-0.23-0.15-0.42-0.18-0.63-0.4c-0.06-0.07-0.13-0.14-0.19-0.21c0.06-0.1,0.11-0.2,0.17-0.3
		c0.01,0,0.08,0.13,0.09,0.13c0.03,0.02,0.09,0.09,0.12,0.12c0.48,0.43,0.99,0.44,1.22,1.15c0.01,0.02,0.01,0.03,0.01,0.05
		c0,0.01,0,0.03,0,0.04c0,0.01,0,0.01,0,0.01c0,0.04,0,0.07,0.01,0.11c0.01,0.03,0.03,0.05,0.05,0.06c0.04,0.07,0.11,0.1,0.26,0.02
		c0.07-0.04,0.09-0.09,0.1-0.14c0.02-0.05,0.03-0.1,0.03-0.16c0-0.01,0.01-0.02,0.01-0.03c0.08-0.12,0.27-0.16,0.38,0
		c0.01,0.02,0.02,0.04,0.03,0.06c0,0.01,0,0.02,0.01,0.03c0.01,0.05,0.01,0.1,0.03,0.14c0.01,0.02,0.02,0.04,0.03,0.06
		c0.01,0.05,0.03,0.1,0.06,0.14c0.17,0.24,0.5,0.42,0.8,0.46c0.01,0,0.01,0,0.02,0c0.03,0,0.06,0.01,0.08,0.01
		c0.03,0,0.06-0.08,0.09-0.08c0.63-0.11,0.55-0.18,0.77-0.01c0.02,0.21-0.02,0.41-0.13,0.6c-0.06,0.09-0.13,0.17-0.21,0.25
		c-0.26,0.02-0.54,0.11-0.81,0.11c-0.27,0-0.54-0.02-0.8-0.09c-0.12-0.04-0.23-0.08-0.35-0.12c-0.09-0.08-0.19-0.16-0.28-0.23
		c-0.18-0.04-0.15-0.01-0.19,0.03c-0.02,0.01-0.05,0.02-0.07,0.04c-0.02,0.01-0.04,0.01-0.06,0.02c-0.05,0.04-0.1,0.07-0.14,0.11
		c-0.27,0.12-0.53,0.13-0.78,0.04c-0.21-0.05-0.44-0.15-0.62-0.26c-0.37-0.21-0.35-0.65-0.54-0.88c-0.02-0.04-0.06-0.08-0.1-0.11
		c-0.04-0.02-0.08-0.03-0.12-0.03c-0.04-0.01-0.07-0.02-0.12-0.02c-0.34-0.02-0.71,0.09-1.04,0.14c-0.58,0.09-1.05,0.09-1.62,0
		c-0.04-0.01-0.08-0.01-0.13-0.02c-0.07-0.02-0.15-0.03-0.22-0.02c-0.01,0-0.02,0.01-0.02,0.01c-0.08,0.02-0.14,0.07-0.14,0.17
		c-0.05,0.17-0.27,0.25-0.45,0.34c-0.01,0-0.02,0.01-0.03,0.01c-0.02,0.01-0.04,0.02-0.06,0.03c-0.05,0.03-0.09,0.05-0.13,0.08
		c-0.21,0.19-0.32,0.47-0.53,0.67c-0.09,0.09-0.19,0.17-0.28,0.24c-0.08,0.06-0.17,0.12-0.24,0.18c-0.13,0.1-0.26,0.22-0.38,0.34
		c-0.14,0.13-0.27,0.26-0.38,0.42c-0.11,0.15-0.3,0.38-0.32,0.58c-0.01,0.16,0.18,0.44,0.19,0.62c0.03,0.47-0.63,1.12-0.3,1.57
		c0.17,0.23,0.45,0.23,0.67,0.44c0.08,0.07,0.17,0.25,0.21,0.31c0.07,0.15,0.14,0.3,0.24,0.42c0.3,0.36,0.76,0.48,1.21,0.49
		c0.73,0.01,1.44-0.27,2.16-0.31c0.49-0.03,0.91,0.19,1.38,0.27c0.17,0.03,0.35,0.05,0.52,0.07c0.15,0.34-0.13,0.73-0.1,1.1
		c0.02,0.2,0.08,0.3,0.19,0.46c0.46,0.69,0.72,1.41,0.47,2.25c-0.08,0.27-0.22,0.48-0.29,0.7c-0.03,0.08-0.05,0.16-0.06,0.25
		c0,0.03,0,0.06,0,0.08c0,0.09,0.01,0.18,0.04,0.27c0.04,0.12,0.11,0.23,0.15,0.34c0.14,0.33,0.14,0.58,0.16,0.93
		c0.01,0.27,0.02,0.45,0.12,0.7c0.11,0.25,0.28,0.46,0.39,0.7c0.15,0.32,0.06,0.56,0.12,0.86c0.01,0.06,0.03,0.11,0.06,0.15
		c0.01,0.01,0.01,0.02,0.02,0.03c0,0,0.01,0.01,0.01,0.01c0.01,0.01,0.02,0.02,0.03,0.02c0.01,0,0.01,0.01,0.02,0.01
		c0.17,0.09,0.44-0.04,0.66-0.12c0.21-0.07,0.41-0.16,0.59-0.25c0.31-0.14,0.61-0.31,0.87-0.54c0.17-0.15,0.32-0.33,0.45-0.51
		c0.22-0.27,0.42-0.57,0.6-0.92c0.11-0.21,0.22-0.43,0.23-0.67c0.03-0.48-0.33-0.83,0.21-1.29c0.04-0.04,0.09-0.07,0.14-0.1
		c0.21-0.11,0.44-0.21,0.61-0.36c0,0,0,0,0,0c0.11-0.09,0.2-0.2,0.27-0.36c0.2-0.47,0.09-1.02,0.03-1.5c-0.07-0.53,0-0.89,0.38-1.31
		c0.27-0.3,0.57-0.58,0.85-0.87c0.36-0.37,0.8-0.8,0.94-1.31c0.04-0.16,0.06-0.21,0.04-0.25c0-0.01,0-0.02-0.01-0.03
		c-0.02-0.03-0.06-0.04-0.09-0.04c-0.01-0.01-0.02-0.01-0.03-0.02c-0.2-0.11-0.6,0.03-0.89,0.08c-0.02,0-0.05,0.01-0.07,0.01
		c-0.05,0-0.09,0-0.13,0c-0.44-0.08-0.59-0.55-0.81-0.88c-0.32-0.48-0.68-1.02-1.12-1.42c-0.16-0.35-0.3-0.87-0.02-1.09
		c0.01-0.01,0.01-0.01,0.02-0.01c0.03,0.01,0.05,0.02,0.08,0.03c-0.02,0.05-0.03,0.1,0.05,0.05c0.27,0.32,0.45,0.73,0.67,1.08
		c0.07,0.12,0.16,0.23,0.24,0.33c0.08,0.11,0.16,0.21,0.25,0.31c0.07,0.08,0.14,0.15,0.21,0.22c0.08,0.1,0.15,0.19,0.22,0.3
		c0.16,0.24,0.21,0.45,0.26,0.58c0,0.02,0.01,0.03,0.01,0.05c0.01,0.03,0.02,0.07,0.04,0.09c0.04,0.04,0.11,0.03,0.17,0.01
		c0.08-0.01,0.2-0.06,0.38-0.15c0.4-0.21,0.69-0.51,1.03-0.79c0.3-0.25,0.67-0.37,0.83-0.75c0.03-0.08,0.05-0.15,0.05-0.21
		c0.01-0.04,0.02-0.08,0.01-0.11c-0.01-0.03-0.04-0.06-0.07-0.08c-0.17-0.19-0.63-0.18-0.92-0.21c-0.44-0.04-0.93-0.12-1.05-0.64
		c-0.07-0.3-0.12-0.02,0.21-0.51c0.07,0.1,0.14,0.21,0.22,0.31c0.28,0.37,0.61,0.63,1.08,0.67c0.42,0.04,0.83-0.11,1.25-0.04
		c0.56,0.1,0.61,0.5,1,0.78c0.05,0.03,0.09,0.06,0.14,0.08c0.08,0.67,0.12,1.34,0.12,2.02C49.68,34.27,49.24,36.48,48.36,38.56z"/>
</g>
</svg>
